<svg width="45" height="45" viewBox="0 0 45 45" fill="none" xmlns="http://www.w3.org/2000/svg">
<g clip-path="url(#clip0_254_80)">
<path d="M2.19728 44.9998C1.76264 44.9999 1.33774 44.8711 0.97633 44.6296C0.614916 44.3882 0.333224 44.045 0.166884 43.6434C0.000544507 43.2419 -0.0429694 42.8 0.0418465 42.3738C0.126662 41.9475 0.335998 41.5559 0.643373 41.2486L41.2488 0.643161C41.661 0.231039 42.2199 -0.000488281 42.8027 -0.000488281C43.3856 -0.000488281 43.9445 0.231039 44.3567 0.643161C44.7688 1.05528 45.0003 1.61424 45.0003 2.19707C45.0003 2.77989 44.7688 3.33885 44.3567 3.75097L3.75119 44.3564C3.54731 44.5607 3.30508 44.7227 3.03842 44.8331C2.77175 44.9436 2.4859 45.0002 2.19728 44.9998Z" fill="#242629"/>
<path d="M42.8027 44.9998C42.5141 45.0002 42.2283 44.9436 41.9616 44.8331C41.6949 44.7227 41.4527 44.5607 41.2488 44.3564L0.643374 3.75097C0.231253 3.33885 -0.000274658 2.77989 -0.000274658 2.19707C-0.000274658 1.61424 0.231253 1.05528 0.643374 0.643161C1.0555 0.231039 1.61445 -0.000488281 2.19728 -0.000488281C2.78011 -0.000488281 3.33907 0.231039 3.75119 0.643161L44.3567 41.2486C44.664 41.5559 44.8734 41.9475 44.9582 42.3738C45.043 42.8 44.9995 43.2419 44.8331 43.6434C44.6668 44.045 44.3851 44.3882 44.0237 44.6296C43.6623 44.8711 43.2374 44.9999 42.8027 44.9998Z" fill="#242629"/>
</g>
<defs>
<clipPath id="clip0_254_80">
<rect width="45" height="45" fill="white"/>
</clipPath>
</defs>
</svg>
