<svg width="26" height="26" viewBox="0 0 26 26" fill="none" xmlns="http://www.w3.org/2000/svg">
<g clip-path="url(#clip0_122_3037)">
<path d="M25.274 18.8475L21.7852 15.3587C20.5392 14.1126 18.421 14.6111 17.9226 16.2309C17.5488 17.3523 16.3028 17.9753 15.1814 17.7261C12.6893 17.1031 9.32512 13.8634 8.70211 11.2468C8.32831 10.1254 9.07592 8.87936 10.1973 8.50561C11.8171 8.0072 12.3155 5.88899 11.0695 4.64298L7.58071 1.15415C6.5839 0.281948 5.08869 0.281948 4.21648 1.15415L1.84907 3.52157C-0.518352 6.01359 2.09827 12.6174 7.95451 18.4737C13.8108 24.3299 20.4146 27.0712 22.9066 24.5791L25.274 22.2117C26.1463 21.2149 26.1463 19.7197 25.274 18.8475Z" fill="#242629"/>
</g>
<defs>
<clipPath id="clip0_122_3037">
<rect width="25" height="25" fill="white" transform="translate(0.95459 0.5)"/>
</clipPath>
</defs>
</svg>
