<svg width="60" height="61" viewBox="0 0 60 61" fill="none" xmlns="http://www.w3.org/2000/svg">
<g clip-path="url(#clip0_123_4714)">
<path d="M24.726 18.6638C11.1565 18.6638 1.15227e-06 27.9951 1.15227e-06 39.4653C1.15227e-06 44.0503 1.77844 48.71 5.03988 52.3216L0.434298 57.5846C0.211946 57.8386 0.0676044 58.1514 0.0185905 58.4854C-0.0304234 58.8194 0.0179717 59.1605 0.15797 59.4677C0.297259 59.7752 0.522244 60.0361 0.805983 60.2191C1.08972 60.4021 1.42019 60.4994 1.75781 60.4994H26.4838C36.5027 60.4994 49.452 51.8721 49.452 39.4653C49.452 27.9951 38.2955 18.6638 24.726 18.6638ZM14.0622 42.6873C12.1241 42.6873 10.5466 41.1097 10.5466 39.1717C10.5466 37.2337 12.1242 35.6562 14.0622 35.6562C16.0001 35.6562 17.5777 37.2338 17.5777 39.1717C17.5778 41.1097 16.0002 42.6873 14.0622 42.6873ZM24.726 42.6873C22.7879 42.6873 21.2105 41.1097 21.2105 39.1717C21.2105 37.2337 22.788 35.6562 24.726 35.6562C26.6639 35.6562 28.2415 37.2338 28.2415 39.1717C28.2415 41.1097 26.664 42.6873 24.726 42.6873ZM35.3898 42.6873C33.4518 42.6873 31.8743 41.1097 31.8743 39.1717C31.8743 37.2337 33.4519 35.6562 35.3898 35.6562C37.3277 35.6562 38.9053 37.2338 38.9053 39.1717C38.9053 41.1097 37.3279 42.6873 35.3898 42.6873Z" fill="#3F6EE1"/>
<path d="M59.5748 36.2689L55.4362 31.4402C58.3903 28.1067 59.9989 24.0417 59.9989 19.8362C59.9987 9.1746 49.7474 0.500732 37.1478 0.500732C25.7542 0.500732 16.0744 7.60101 14.3652 16.8425C17.5443 15.7623 21.1095 15.1482 24.7262 15.1482C40.1192 15.1482 52.7658 25.8996 52.9506 39.1717H58.2411C59.7426 39.1718 60.5489 37.4037 59.5748 36.2689Z" fill="#3F6EE1"/>
</g>
<defs>
<clipPath id="clip0_123_4714">
<rect width="60" height="60" fill="white" transform="translate(0 0.5)"/>
</clipPath>
</defs>
</svg>
