<svg width="26" height="23" viewBox="0 0 26 23" fill="none" xmlns="http://www.w3.org/2000/svg">
<g clip-path="url(#clip0_123_4628)">
<path d="M1.59399 10.0811L17.0813 3.55109C18.6101 2.87088 23.7947 0.694223 23.7947 0.694223C23.7947 0.694223 26.1876 -0.258065 25.9882 2.05464C25.9217 3.00692 25.39 6.33993 24.8582 9.94502L23.1965 20.6243C23.1965 20.6243 23.0636 22.1887 21.9336 22.4608C20.8036 22.7329 18.9425 21.5085 18.6101 21.2364C18.3442 21.0324 13.6249 17.9715 11.8967 16.475C11.4314 16.0669 10.8997 15.2506 11.9632 14.2983C14.3561 12.0537 17.2143 9.26482 18.9425 7.49628C19.7401 6.68004 20.5377 4.77546 17.2143 7.08816L7.8421 13.5501C7.8421 13.5501 6.77859 14.2303 4.78452 13.6181C2.79044 13.006 0.464016 12.1897 0.464016 12.1897C0.464016 12.1897 -1.13124 11.1694 1.59399 10.0811Z" fill="#1398DB"/>
</g>
<defs>
<clipPath id="clip0_123_4628">
<rect width="26" height="22" fill="white" transform="translate(0 0.5)"/>
</clipPath>
</defs>
</svg>
