<svg width="22" height="22" viewBox="0 0 22 22" fill="none" xmlns="http://www.w3.org/2000/svg">
<g clip-path="url(#clip0_123_4663)">
<path d="M18.9133 2.95305C16.9228 1.04871 14.2763 0 11.4613 0C8.64638 0 5.99986 1.04871 4.00933 2.95305C2.0188 4.85738 0.922668 7.38924 0.922668 10.0823C0.922668 11.7883 1.37405 13.4647 2.23085 14.9496L0 21.0474L6.37369 18.9132C7.92588 19.7328 9.67818 20.1646 11.4613 20.1646C14.2763 20.1646 16.9228 19.1159 18.9132 17.2117C20.9038 15.3073 22 12.7754 22 10.0823C22 7.38919 20.9038 4.85734 18.9133 2.95305ZM16.6712 13.8278L15.4546 14.9918C14.4467 15.9559 11.5869 14.7835 9.06718 12.3728C6.54741 9.96217 5.32181 7.22628 6.32973 6.262L7.54634 5.09807C7.79831 4.85701 8.20686 4.85701 8.45883 5.09807L9.97958 6.55301C10.2316 6.79407 10.2316 7.18492 9.97958 7.42599L9.06714 8.29895C9.95223 10.0866 11.4568 11.526 13.3254 12.3728L14.2379 11.4999C14.4899 11.2587 14.8984 11.2587 15.1503 11.4999L16.6712 12.9547C16.9232 13.1959 16.9232 13.5867 16.6712 13.8278Z" fill="white"/>
</g>
<defs>
<clipPath id="clip0_123_4663">
<rect width="22" height="22" fill="white"/>
</clipPath>
</defs>
</svg>
