<svg width="22" height="23" viewBox="0 0 22 23" fill="none" xmlns="http://www.w3.org/2000/svg">
<g clip-path="url(#clip0_123_4626)">
<path d="M18.9133 3.45305C16.9228 1.54871 14.2763 0.5 11.4613 0.5C8.64638 0.5 5.99986 1.54871 4.00933 3.45305C2.0188 5.35738 0.922668 7.88924 0.922668 10.5823C0.922668 12.2883 1.37405 13.9647 2.23085 15.4496L0 21.5474L6.37369 19.4132C7.92588 20.2328 9.67818 20.6646 11.4613 20.6646C14.2763 20.6646 16.9228 19.6159 18.9132 17.7117C20.9038 15.8073 22 13.2754 22 10.5823C22 7.88919 20.9038 5.35734 18.9133 3.45305ZM16.6712 14.3278L15.4546 15.4918C14.4467 16.4559 11.5869 15.2835 9.06718 12.8728C6.54741 10.4622 5.32181 7.72628 6.32973 6.762L7.54634 5.59807C7.79831 5.35701 8.20686 5.35701 8.45883 5.59807L9.97958 7.05301C10.2316 7.29407 10.2316 7.68492 9.97958 7.92599L9.06714 8.79895C9.95223 10.5866 11.4568 12.026 13.3254 12.8728L14.2379 11.9999C14.4899 11.7587 14.8984 11.7587 15.1503 11.9999L16.6712 13.4547C16.9232 13.6959 16.9232 14.0867 16.6712 14.3278Z" fill="#25D366"/>
</g>
<defs>
<clipPath id="clip0_123_4626">
<rect width="22" height="22" fill="white" transform="translate(0 0.5)"/>
</clipPath>
</defs>
</svg>
