<svg width="201" height="51" viewBox="0 0 201 51" fill="none" xmlns="http://www.w3.org/2000/svg">
<path d="M185.41 24.6096C187.669 24.6096 189.5 22.7942 189.5 20.5548C189.5 18.3154 187.669 16.5 185.41 16.5C183.15 16.5 181.319 18.3154 181.319 20.5548C181.319 22.7942 183.15 24.6096 185.41 24.6096Z" fill="#00F500"/>
<path d="M141.141 30.1111C139.062 30.1111 137.426 28.4891 137.426 26.385C137.426 24.2809 139.062 22.659 141.141 22.659C143.219 22.659 144.9 24.2809 144.9 26.385C144.9 28.4891 143.219 30.1111 141.141 30.1111ZM144.9 22.5494H144.458C143.64 21.0809 142.114 20.248 140.367 20.248C137.492 20.248 134.817 22.922 134.817 26.385C134.817 29.848 137.426 32.4782 140.367 32.4782C142.114 32.4782 143.64 31.6453 144.458 30.1768H144.9V32.1713H147.465V20.533H144.9V22.5494ZM21.8241 30.1111C19.7455 30.1111 18.1092 28.4891 18.1092 26.385C18.1092 24.2809 19.7455 22.659 21.8241 22.659C23.9026 22.659 25.5831 24.2809 25.5831 26.385C25.5831 28.4891 23.9026 30.1111 21.8241 30.1111ZM25.5831 22.5494H25.1409C24.3227 21.0809 22.797 20.248 21.0501 20.248C18.1756 20.248 15.5 22.922 15.5 26.385C15.5 29.848 18.1092 32.4782 21.0501 32.4782C22.797 32.4782 24.3227 31.6453 25.1409 30.1768H25.5831V32.1713H28.1481V20.533H25.5831V22.5494ZM159.693 25.1357H153.678V20.533H151.113V32.1933H153.678V27.5686H159.693V32.1933H162.258V20.533H159.693V25.1357ZM171.324 26.2316L177.405 20.533H173.889L168.427 25.8809V20.533H165.862V32.1933H168.427V26.8234L173.933 32.1933H177.714L171.324 26.2316ZM128.714 29.9138H124.579V26.9768H128.714C129.886 26.9768 130.439 27.5905 130.439 28.4453C130.439 29.3001 129.908 29.9138 128.714 29.9138ZM129.001 24.6974H124.557V22.7905H132.097V20.533H121.992V32.1933H129.023C131.434 32.1933 133.07 30.6152 133.07 28.4672C133.07 26.3193 131.389 24.6974 129.001 24.6974ZM97.8233 30.0891C95.7005 30.0891 94.1306 28.4672 94.1306 26.385C94.1306 24.2809 95.7005 22.659 97.8233 22.659C99.8797 22.659 101.516 24.2809 101.516 26.385C101.516 28.4672 99.9239 30.0891 97.8233 30.0891ZM97.8233 20.248C94.7276 20.248 92.2289 22.3522 91.6761 25.1576H89.5091V20.533H86.922V32.1933H89.487V27.5467H91.654C92.1847 30.3741 94.7276 32.5001 97.8012 32.5001C101.273 32.5001 104.081 29.7823 104.081 26.407C104.103 22.9659 101.273 20.248 97.8233 20.248ZM105.032 22.9439H109.344V32.1713H111.909V22.9439H116.221V20.533H105.032V22.9439ZM76.6841 20.533L71.6426 32.1933H74.3624L78.2762 22.8782L82.19 32.1933H85.0204L79.9788 20.533H76.6841ZM50.8572 22.6371C53.378 22.6371 54.0856 24.5659 54.0856 24.5659H56.8054C56.8054 24.5659 55.7219 20.248 50.8572 20.248C47.3635 20.248 44.6216 22.9659 44.6216 26.385C44.6216 29.8261 47.3635 32.522 50.8572 32.522C55.7219 32.522 56.8054 28.2042 56.8054 28.2042H54.0856C54.0856 28.2042 53.378 30.133 50.8572 30.133C48.8008 30.133 47.253 28.5111 47.253 26.407C47.253 24.3028 48.8008 22.6371 50.8572 22.6371ZM38.5408 29.87H34.3616V26.9768H38.5187C39.6906 26.9768 40.2434 27.5905 40.2434 28.4453C40.2434 29.3001 39.7348 29.87 38.5408 29.87ZM38.8504 24.6974H34.3616V22.8124H41.9239V20.533H31.7966V32.1933H38.8504C41.2385 32.1933 42.8969 30.6152 42.8969 28.4672C42.8969 26.3193 41.2164 24.6974 38.8504 24.6974ZM64.6331 30.0891C62.4661 30.0891 60.874 28.4672 60.874 26.385C60.874 24.2809 62.4661 22.659 64.6331 22.659C66.7337 22.659 68.3921 24.2809 68.3921 26.385C68.3921 28.4672 66.7779 30.0891 64.6331 30.0891ZM64.6331 20.248C61.073 20.248 58.2648 22.9659 58.2648 26.385C58.2648 29.7823 61.073 32.4782 64.6331 32.4782C68.171 32.4782 71.0234 29.7604 71.0234 26.385C71.0234 22.9659 68.1046 20.248 64.6331 20.248Z" fill="#FF5000"/>
</svg>
