<svg width="200" height="51" viewBox="0 0 200 51" fill="none" xmlns="http://www.w3.org/2000/svg">
<path d="M43.8305 32.3491C43.4185 32.3491 43.1798 32.5963 43.1798 33.0435V36.576H37.7582V33.0435C37.7582 32.5986 37.5195 32.3491 37.1075 32.3491C36.7 32.3491 36.4568 32.5963 36.4568 33.0435V41.5603C36.4568 42.0052 36.7 42.2524 37.1075 42.2524C37.5195 42.2524 37.7582 42.0052 37.7582 41.5603V37.7895H43.1798V41.5603C43.1798 42.0052 43.4185 42.2524 43.8305 42.2524C44.238 42.2524 44.4767 42.0052 44.4767 41.5603V33.0435C44.4789 32.5963 44.238 32.3491 43.8305 32.3491ZM50.5242 37.185L54.2955 33.421C54.4734 33.2435 54.5499 33.0997 54.5499 32.8974C54.5499 32.6008 54.345 32.3491 53.9938 32.3491C53.8114 32.3491 53.6651 32.4121 53.5007 32.5739L49.815 36.2525C49.6079 36.4592 49.3985 36.5738 49.1058 36.5738H48.347V33.0413C48.347 32.5963 48.1084 32.3469 47.6963 32.3469C47.2888 32.3469 47.0457 32.5941 47.0457 33.0413V41.558C47.0457 42.0029 47.2888 42.2501 47.6963 42.2501C48.1084 42.2501 48.347 42.0029 48.347 41.558V37.7873H49.018C49.3084 37.7873 49.5178 37.9041 49.7249 38.1086L53.6381 42.0142C53.8114 42.185 53.9623 42.2501 54.1559 42.2501C54.5252 42.2501 54.739 41.9872 54.739 41.6771C54.739 41.4636 54.658 41.3131 54.4711 41.1266L50.5242 37.185ZM58.6679 20.6234C58.0825 20.9313 57.281 21.1515 56.5132 21.1515C55.2479 21.1515 54.4554 20.6055 54.4554 19.6527C54.4554 18.7943 55.1331 18.1291 56.5042 18.1291C57.227 18.1291 57.8664 18.2347 58.6679 18.4729V20.6234ZM56.6866 12.7157C55.5856 12.7157 54.5927 12.9966 53.9578 13.255C53.4219 13.473 53.1945 13.7831 53.1968 14.1966C53.2013 14.6842 53.5705 15.0415 54.0298 15.0415C54.2505 15.0415 54.4959 14.9561 54.7571 14.8527C55.1713 14.6864 55.8535 14.5067 56.5357 14.5067C58.051 14.5067 58.6679 15.0775 58.6679 16.2437V17.0302C57.7966 16.7965 57.0851 16.6932 56.2701 16.6932C53.7889 16.6932 52.5776 18.1044 52.5776 19.6527C52.5776 21.4437 53.9353 22.792 56.3399 22.792C58.2086 22.792 59.6316 22.1717 60.2012 21.7807C60.4736 21.592 60.5704 21.4122 60.5704 21.0459V16.2864C60.5682 13.837 59.1565 12.7157 56.6866 12.7157ZM80.422 19.0617C79.9762 19.0707 79.7262 19.3358 79.5574 19.6302C79.2151 20.365 78.4924 20.8841 77.504 20.8841C76.1081 20.8841 75.2863 20.0437 75.1714 18.801C75.1107 18.1358 75.1107 17.3673 75.1714 16.7022C75.2863 15.4572 76.1193 14.6168 77.504 14.6168C78.4924 14.6168 79.2084 15.1269 79.5574 15.8797C79.733 16.1651 79.9762 16.437 80.422 16.4415C80.9938 16.446 81.3788 16.0909 81.3788 15.5314C81.3788 15.2415 81.2685 14.9516 81.0929 14.6348C80.5188 13.5674 79.2714 12.7134 77.477 12.7134C75.0544 12.7134 73.4243 14.2393 73.2216 16.4213C73.1518 17.1471 73.1518 18.3493 73.2216 19.0774C73.4333 21.2594 75.0544 22.7897 77.477 22.7897C79.2714 22.7897 80.5188 21.9403 81.0996 20.8661C81.2753 20.547 81.3811 20.2594 81.3811 19.9695C81.3788 19.419 80.9916 19.0482 80.422 19.0617ZM36.2002 21.0167L32.8049 17.628L36.0268 14.4123C36.2767 14.1629 36.405 13.9157 36.405 13.6303C36.405 13.1561 36.0606 12.8033 35.5697 12.8033C35.2838 12.8033 35.0699 12.9067 34.793 13.1831L31.5193 16.4505C31.3414 16.6302 31.15 16.7314 30.8956 16.7314H30.2269V13.8415C30.2269 13.1853 29.8442 12.8033 29.2408 12.8033C28.6419 12.8033 28.2614 13.1853 28.2614 13.8415V21.6616C28.2614 22.3178 28.6441 22.7043 29.2408 22.7043C29.8442 22.7043 30.2269 22.3178 30.2269 21.6616V18.5403H30.7853C31.0397 18.5403 31.2311 18.6415 31.409 18.8212L34.9033 22.3066C35.1915 22.5942 35.4166 22.7066 35.7161 22.7066C36.2339 22.7066 36.5964 22.338 36.5964 21.8369C36.5964 21.538 36.4636 21.2774 36.2002 21.0167ZM69.3491 18.8032C69.2342 20.0504 68.4575 20.8931 67.0345 20.8931C66.2983 20.8931 65.3729 20.6684 64.9158 20.347V15.1606C65.3729 14.8348 66.296 14.61 67.0345 14.61C68.4575 14.61 69.2365 15.4572 69.3491 16.7044C69.4053 17.3314 69.4098 18.1246 69.3491 18.8032ZM67.0953 12.7157C65.3751 12.7157 63.9995 13.3224 63.4456 13.6483C62.9931 13.9157 62.9458 14.1269 62.9458 14.8797V24.902C62.9458 25.5537 63.3263 25.9402 63.9252 25.9402C64.5286 25.9402 64.9136 25.5537 64.9136 24.902V22.2863C65.5035 22.5717 66.4063 22.792 67.2664 22.792C69.5404 22.792 71.103 21.2796 71.3079 19.0976C71.3777 18.3628 71.3777 17.1516 71.3079 16.41C71.1075 14.2235 69.5427 12.7157 67.0953 12.7157ZM32.7959 40.4502C32.0754 40.8367 31.096 41.1198 30.1886 41.1198C28.5653 41.1198 27.6489 40.4322 27.6489 39.2434C27.6489 38.176 28.455 37.3783 30.1886 37.3783C31.0487 37.3783 31.776 37.5041 32.7959 37.8052V40.4502ZM30.4678 32.2637C29.3331 32.2637 28.2276 32.5716 27.6287 32.8435C27.2257 33.0188 27.0433 33.2053 27.0523 33.5266C27.0636 33.8592 27.3202 34.1221 27.6377 34.1221C27.793 34.1221 27.9799 34.0615 28.1623 33.9761C28.6216 33.7806 29.4884 33.5222 30.3372 33.5222C32.0169 33.5222 32.7959 34.2053 32.7959 35.7266V36.6322C31.7422 36.3266 30.9834 36.221 30.0738 36.221C27.6129 36.221 26.3633 37.6345 26.3633 39.2322C26.3633 41.1086 27.7773 42.3423 30.0175 42.3423C31.8683 42.3423 33.2845 41.6928 33.8068 41.3131C34.0185 41.1625 34.0792 41.0412 34.0792 40.7535V35.6929C34.0792 33.3514 32.7216 32.2637 30.4678 32.2637ZM20.98 40.8883H17.301V35.6817H20.98C22.905 35.6817 23.6976 36.6232 23.6976 38.2502C23.6976 39.9131 22.905 40.8883 20.98 40.8883ZM21.1466 34.4323H17.301V30.4143H23.7088C24.1366 30.4143 24.4315 30.1761 24.4315 29.7671C24.4315 29.3761 24.1366 29.1334 23.7088 29.1334H17.1367C16.4004 29.1334 15.9794 29.5424 15.9794 30.2862V41.0097C15.9794 41.7535 16.3982 42.1647 17.1367 42.1647H21.1444C23.6075 42.1647 25.035 40.7355 25.035 38.2389C25.035 35.8098 23.6098 34.4323 21.1466 34.4323ZM43.754 16.4437H46.9781C48.5024 16.4437 49.1823 17.219 49.1823 18.5561C49.1823 19.9156 48.5024 20.7268 46.9781 20.7268H43.754V16.4437ZM43.2676 22.6167H47.1898C49.7407 22.6167 51.2515 21.138 51.2515 18.5134C51.2515 16.037 49.7407 14.6527 47.1898 14.6527H43.754V11.4887H49.5268C50.1572 11.4887 50.567 11.118 50.567 10.5247C50.567 9.96067 50.1572 9.58764 49.5268 9.58764H43.2676C42.277 9.58764 41.7344 10.1247 41.7344 11.118V21.0886C41.7321 22.0819 42.2747 22.6167 43.2676 22.6167ZM18.805 16.7359L20.6062 11.6078C20.676 11.4281 20.7346 11.3651 20.8697 11.3651C21.0025 11.3651 21.061 11.4281 21.1263 11.6078L22.9366 16.7359H18.805ZM26.7529 21.7583C26.7529 21.5762 26.7213 21.3987 26.6178 21.1246L22.9838 11.2236C22.5448 10.0146 21.9054 9.5 20.8877 9.5C19.8745 9.5 19.2306 10.0146 18.7938 11.2236L15.1351 21.1291C15.0225 21.4369 15 21.6212 15 21.765C15 22.2796 15.4098 22.7066 15.9794 22.7066C16.4455 22.7066 16.7944 22.4729 16.9881 21.9021L18.1724 18.5358H23.576L24.7693 21.9111C24.9584 22.4729 25.3074 22.7066 25.7667 22.7066C26.3453 22.7066 26.7529 22.2774 26.7529 21.7583Z" fill="#170030"/>
<path d="M185.447 24.9826C184.104 21.5821 180.788 19.7302 177.199 20.3783L169.823 21.7065C168.599 21.9269 167.786 23.0987 168.004 24.3232C168.224 25.5478 169.394 26.3616 170.617 26.1431L177.992 24.8149C179.747 24.4984 180.831 25.5497 181.26 26.6367C181.69 27.7256 181.615 29.2346 180.12 30.2048L169.295 37.2299C168.288 37.8818 167.064 37.927 166.016 37.3562C164.967 36.7853 164.338 35.7285 164.338 34.5322V11.7688C164.338 10.5236 163.332 9.51378 162.089 9.51378C160.845 9.51378 159.839 10.5236 159.839 11.7688V34.5359C159.839 37.4108 161.344 39.9465 163.866 41.3199C165.038 41.9567 166.3 42.2751 167.557 42.2751C169.007 42.2751 170.452 41.8549 171.742 41.0166L182.567 33.9915C185.633 32.0021 186.79 28.3831 185.447 24.9826ZM147.37 20.3802L139.994 21.7084C138.772 21.9288 137.959 23.1006 138.177 24.3251C138.397 25.5497 139.567 26.3635 140.79 26.145L148.165 24.8168C149.922 24.5003 151.004 25.5515 151.435 26.6386C151.864 27.7275 151.79 29.2365 150.293 30.2067L139.468 37.2318C138.463 37.8836 137.239 37.9289 136.189 37.358C135.14 36.7872 134.513 35.7303 134.513 34.5341V17.2397C134.513 14.363 133.008 11.8272 130.486 10.4538C127.964 9.08236 125.02 9.1954 122.61 10.7572L95.3809 28.4264C92.3167 30.4139 91.1599 34.0329 92.503 37.4334C93.8441 40.832 97.1584 42.682 100.751 42.0358L124.525 37.7555C125.748 37.5351 126.562 36.3633 126.342 35.1388C126.122 33.9142 124.952 33.0985 123.729 33.3189L99.9555 37.5992C98.1986 37.9157 97.117 36.8645 96.6882 35.7774C96.2574 34.6885 96.3308 33.1795 97.8281 32.2074L125.052 14.5419C126.054 13.892 127.281 13.8449 128.33 14.4157C129.38 14.9884 130.006 16.0453 130.006 17.2416V34.5359C130.006 37.4108 131.511 39.9465 134.034 41.3199C135.205 41.9567 136.469 42.2751 137.726 42.2751C139.176 42.2751 140.619 41.8549 141.909 41.0166L152.736 33.9915C155.799 32.004 156.955 28.385 155.614 24.9845C154.277 21.5821 150.959 19.734 147.37 20.3802Z" fill="#009C32"/>
</svg>
