<svg width="200" height="51" viewBox="0 0 200 51" fill="none" xmlns="http://www.w3.org/2000/svg">
<path d="M35 44.1285L53.8012 44.103L53.7884 25.4932C49.8699 32.9218 42.5307 37.7466 35 39.5973C35.0255 41.0014 35 44.1285 35 44.1285Z" fill="#008FB4"/>
<path d="M41.0117 34.7597C48.1084 31.1731 51.5291 24.6252 51.5291 24.6252C51.5291 24.6252 51.5036 22.4681 51.5036 22.4298C47.5979 21.0513 44.0495 19.0347 41.0245 16.0224C41.0372 21.1279 41.0117 34.7597 41.0117 34.7597ZM42.0201 6.58984C42.0201 6.58984 42.0201 12.2825 42.0073 13.6993C43.8836 15.4352 44.8154 16.2393 46.7555 17.4774L46.7682 9.84462C44.5601 8.63205 43.7049 7.99386 42.0201 6.58984Z" fill="#008FB4"/>
<path d="M69.9219 12.5884C69.756 11.5673 69.1816 10.8908 68.2243 10.5717C67.7521 10.4185 67.2287 10.3292 66.5905 10.2909C66.2076 10.2654 65.812 10.2909 65.4418 10.3292H65.2886V8.10826L67.1011 8.12102L69.105 8.40183L69.1816 6.58936H62.9911L63.2336 8.84856L63.2592 13.9031L62.9784 16.3027H63.3358C63.3358 16.3027 64.1782 16.2899 64.5866 16.3027C64.8036 16.3027 65.0206 16.3154 65.2376 16.3282C65.5439 16.341 65.8502 16.3665 66.1566 16.3665H66.3736C67.5351 16.341 68.4285 16.0474 69.0923 15.4858C70.1006 14.6051 70.0496 13.418 69.9219 12.5884ZM67.9052 13.0862C67.9052 13.3032 67.8925 13.4818 67.8669 13.6478C67.7904 14.1073 67.5478 14.4264 67.1522 14.5923C66.6288 14.8221 66.0545 14.8731 65.2759 14.7838V11.8991C65.9779 11.8098 66.6671 11.7843 67.3053 12.1033C67.7138 12.3203 67.9052 12.6394 67.9052 13.0862ZM76.0613 7.6998L75.7677 6.5L73.7255 6.52553L73.4958 7.58493L71.0323 13.9669L69.9602 16.2516L72.0917 16.2899L72.4619 14.5412L72.9725 13.2138H76.0358L76.7378 14.9114L77.108 16.2771H79.865L78.9204 14.6561L76.0613 7.6998ZM75.4614 11.7332C75.1423 11.7332 74.8105 11.746 74.4786 11.7587C74.1595 11.7715 73.8276 11.7715 73.5213 11.7842C73.7128 11.3247 73.9042 10.8525 74.0957 10.393C74.2488 10.0484 74.3892 9.70373 74.5296 9.35911L75.4614 11.7332ZM95.8328 16.2771L98.6409 16.2516L94.1735 11.1843L98.3729 6.5638L95.9094 6.57657L95.1691 7.61044C95.1691 7.61044 93.2801 9.69095 92.259 10.8269V8.31246L92.5525 6.58933H89.9742L90.1274 8.28693L90.1657 14.2732L89.9742 16.2643H92.5525L92.2717 14.2859V11.9119L95.8328 16.2771ZM88.1998 13.367C88.1998 12.716 88.2254 8.35079 88.2254 8.35079L88.4551 6.6149H85.9023L86.1066 8.29973C86.1066 8.29973 86.1065 9.57612 86.1193 10.342H82.5071C82.4816 9.24426 82.4944 8.12104 82.7752 7.02334L82.8773 6.62766H80.2224L80.2607 6.98505C80.2735 7.11269 80.4266 8.4529 80.4522 9.07833C80.4904 10.3802 80.4777 11.7204 80.4649 12.9968V13.2904C80.4649 13.8393 80.3373 15.5241 80.2735 15.8304L80.1969 16.2006H82.7624L82.7241 15.8432C82.6986 15.6134 82.6731 15.3964 82.6475 15.1667C82.5837 14.6689 82.5199 14.1839 82.4944 13.7116C82.4688 13.2266 82.4688 12.7288 82.4816 12.2438V11.8991H86.1576C86.1576 12.1417 86.1576 12.3842 86.1704 12.6267C86.1831 13.7244 86.1959 14.771 85.9151 15.8049L85.813 16.2006H88.4934L88.404 15.8177C88.2254 14.9242 88.1998 14.0307 88.1998 13.367ZM120.365 21.0508L120.441 20.6679H114.966L115.004 21.0253C115.195 22.6718 115.336 24.2035 115.438 25.7351C115.502 26.8328 115.489 27.956 115.476 29.0537C115.476 29.4367 115.463 29.8323 115.463 30.2153H105.227C105.176 27.2157 105.138 24.1141 105.916 21.0763L106.018 20.6806H100.377L100.428 21.038C100.428 21.0763 100.849 24.7268 100.913 26.4627C101.015 29.8068 100.989 33.2148 100.951 36.5078V37.2864C100.938 38.7288 100.619 43.1068 100.466 43.8854L100.389 44.2683H105.827L105.788 43.9109C105.725 43.3365 105.648 42.7749 105.584 42.2133C105.418 40.9624 105.265 39.6733 105.189 38.4224C105.112 37.1588 105.138 35.8569 105.15 34.606C105.15 34.1465 105.163 33.687 105.163 33.2275H115.566C115.566 34.0061 115.566 34.7975 115.578 35.5633C115.617 38.4352 115.655 41.1411 114.915 43.8726L114.8 44.281H120.454L120.378 43.8981C119.931 41.5751 119.854 39.2648 119.841 37.5162C119.829 35.7675 119.841 28.0454 119.918 25.9011C119.982 23.8588 120.122 22.2761 120.365 21.0508ZM86.9745 41.3964V33.0233C89.5911 33.0999 94.5817 33.4956 94.6328 33.4956L94.9774 33.5211L94.9902 29.692L86.9745 30.1515V23.5525C89.3613 23.527 93.8414 23.5015 96.1644 24.2162L96.5218 24.3311L96.5729 23.961C96.7388 22.7484 96.624 21.0508 96.6112 20.987L96.5857 20.6934H82.1242L82.188 21.0636C82.673 24.1652 82.6475 27.3051 82.6092 30.3429C82.5965 31.0449 82.5965 31.7469 82.5965 32.4617C82.6347 36.9546 82.1497 43.8598 82.137 43.9237L82.1114 44.2683L96.4963 44.3321L96.5091 44.013C96.5346 43.2472 96.5984 41.1922 96.6367 40.8986L96.6878 40.4647L96.2538 40.554C93.3947 41.1284 90.6888 41.3837 86.9745 41.3964ZM74.6829 31.0577C74.7467 31.0194 74.8105 30.9684 74.8743 30.9301C76.1763 30.0494 77.6696 28.7475 77.759 26.5265C77.8866 23.4632 76.2145 21.2934 73.164 20.5913C70.5346 19.9787 67.8287 20.0808 64.893 20.8849L64.8547 20.8977C63.4379 21.2934 63.1954 21.421 63.2337 21.7529C63.3103 22.3783 63.4379 23.0675 63.5528 23.744C63.6421 24.2418 63.7315 24.7396 63.7953 25.2246C63.8208 25.4033 63.9485 25.5437 64.1144 25.6075C64.2803 25.6586 64.4718 25.6075 64.5867 25.4799L64.7654 25.2884C66.1438 23.8334 67.9436 23.1569 70.2283 23.1952C71.6834 23.2207 72.8959 24.1397 73.1767 25.4288C73.5597 27.203 72.9087 28.7475 71.543 29.3601C70.8792 29.6537 70.1134 29.8707 69.1944 30.0366C68.3009 30.1898 66.5395 30.3174 66.514 30.3174L66.1949 30.3429L66.3225 33.3552L66.6416 33.3424C66.6544 33.3424 68.2244 33.2914 69.539 33.2914C70.1262 33.2914 72.028 33.419 72.9981 34.0062C73.8532 34.5167 74.4659 35.3591 74.6446 36.2526C74.8999 37.5928 75.1296 40.7838 71.6451 41.5496C68.6328 42.2133 66.1694 41.5496 64.3441 39.584C64.191 39.418 64.025 39.2521 63.8464 39.0479L63.6549 38.8437C63.54 38.716 63.3741 38.6777 63.2082 38.7288C63.055 38.7799 62.9401 38.9203 62.9146 39.0862L62.8252 39.8265C62.7359 40.554 62.6593 41.2305 62.5444 41.8942C62.4551 42.4686 62.6465 42.8515 63.1954 43.1451C65.2249 44.2556 67.4713 44.8172 69.8709 44.8172C70.3304 44.8172 70.7899 44.7916 71.2622 44.7533C73.1895 44.5874 74.9637 43.8854 76.3805 42.7111C78.4482 41.0135 79.3927 38.9585 79.163 36.5972C78.9843 33.8785 77.4526 32.015 74.6829 31.0577ZM143.621 33.9934V32.5V31.1087C143.608 27.7646 143.595 24.3056 144.195 21.0635L144.259 20.6806H138.617L138.694 21.0635C138.885 22.0719 139.051 23.1441 139.179 24.2418C139.217 24.5864 139.179 24.7523 139 24.9438C137.213 26.8583 135.452 28.8112 133.767 30.7003C132.222 32.4234 130.627 34.1976 128.993 35.959C129.031 34.4784 129.006 33.0105 128.968 31.5682C128.891 27.956 128.827 24.5353 129.721 21.1018L129.823 20.6934H124.041L124.168 21.1018C124.704 22.8633 124.704 24.5864 124.717 26.4116V28.173C124.73 31.2491 124.743 34.4273 124.704 37.5417C124.704 38.014 124.717 38.4862 124.73 38.9457C124.756 39.8137 124.781 40.6944 124.692 41.5623C124.641 42.0856 124.513 42.5962 124.385 43.1323C124.322 43.3748 124.271 43.6301 124.219 43.8854L124.143 44.2683H129.708L129.644 43.8981C129.529 43.1323 129.44 42.3665 129.363 41.6261C129.312 41.1922 129.274 40.771 129.223 40.337C129.197 40.1583 129.287 39.8903 129.389 39.7754C130.972 38.0523 132.542 36.3164 134.048 34.6315C135.758 32.717 137.532 30.7513 139.345 28.7985V32.0405C139.332 33.0871 139.345 34.1465 139.357 35.1676C139.37 36.7503 139.396 38.3841 139.319 39.9796C139.281 40.8603 139.128 41.7283 138.974 42.6473C138.898 43.0557 138.834 43.4769 138.77 43.8854L138.719 44.2555H144.259L144.182 43.8726C143.608 40.7837 143.621 37.3375 143.621 33.9934ZM157.865 23.8206C157.865 23.7695 157.865 23.7057 157.878 23.6291L165 24.5481L164.541 20.6424H146.735L146.339 24.5481L153.959 23.6291V38.5246L153.219 44.2939H158.618L157.942 38.6267C157.942 38.5118 157.878 28.6964 157.865 23.8206Z" fill="#191646"/>
</svg>
