<svg width="201" height="51" viewBox="0 0 201 51" fill="none" xmlns="http://www.w3.org/2000/svg">
<path d="M34.7192 13.5V21.0769L40.8851 13.5H34.7192ZM21.4426 17.1049C21.8727 16.4136 22.3347 15.8682 22.9744 15.3557L23.4601 15.0259C23.9192 14.7762 24.3347 14.6101 24.8481 14.4824C25.159 14.4268 25.4456 14.3964 25.7659 14.3859C26.1941 14.4002 26.5607 14.4539 26.9768 14.5566C27.2687 14.6498 27.5329 14.7544 27.81 14.8858C28.4395 15.2331 28.9182 15.6239 29.4001 16.1529L29.7622 16.6101C30.2933 17.3876 30.6368 18.158 30.8903 19.0578L31.0273 19.6696C31.0453 19.7672 31.0604 19.8642 31.0725 19.9575V13.5H20.5V19.9749C20.6312 19.2608 20.8414 18.323 21.1636 17.6282L21.4426 17.1049ZM45.2925 14.5473L34.7192 27.5415V30.4897C34.7316 30.3946 34.7477 30.2989 34.7639 30.2024L34.9004 29.5917C35.1547 28.6913 35.4987 27.9202 36.029 27.1423L36.3911 26.6832C36.8036 26.2349 37.2047 25.8877 37.7229 25.5622C37.9895 25.4133 38.2486 25.2918 38.5276 25.1786C39.1504 24.9827 39.6828 24.9069 40.34 24.9265L40.9485 25.0152C41.4576 25.1426 41.8734 25.3087 42.3303 25.5619C42.584 25.7183 42.8128 25.8842 43.045 26.0696C43.7325 26.6867 44.2112 27.3431 44.6303 28.1607L44.8697 28.7117C45.063 29.2318 45.2014 29.9965 45.2928 30.5112L45.2925 14.5473Z" fill="#50B848"/>
<path d="M40.0266 36.0536C38.5349 36.0536 37.3195 34.1493 37.3195 31.8117C37.3195 29.4754 38.5349 27.5711 40.0266 27.5711C41.5203 27.5711 42.737 29.4754 42.737 31.8117C42.737 34.1493 41.5203 36.0536 40.0266 36.0536ZM40.0266 26.4648C37.9135 26.4648 36.1914 28.8658 36.1914 31.8117C36.1914 34.7575 37.9138 37.1604 40.0266 37.1604C42.1387 37.1604 43.8635 34.7575 43.8635 31.8117C43.8651 28.8672 42.1387 26.4648 40.0266 26.4648Z" fill="#50B848"/>
<path d="M34.9004 34.0356L34.7639 33.4222C34.7477 33.3252 34.7316 33.23 34.7192 33.1365V39.5953H45.2925V33.1685C45.1592 33.8845 44.9504 34.7701 44.63 35.4666L44.3475 35.9907C43.9174 36.6796 43.4568 37.2228 42.8179 37.7378L42.33 38.0657C41.8728 38.3186 41.4573 38.4828 40.9482 38.6105C40.6327 38.6661 40.3454 38.697 40.0266 38.7075C39.5998 38.6933 39.231 38.6414 38.8152 38.5368C38.5236 38.443 38.2588 38.3382 37.982 38.2089C37.3525 37.8595 36.8732 37.4698 36.3908 36.9416L36.0287 36.4812C35.4987 35.7063 35.1565 34.9338 34.9004 34.0356ZM31.073 22.6045C31.0612 22.6996 31.0459 22.7948 31.0279 22.8923L30.8908 23.5035C30.6373 24.404 30.2938 25.1756 29.7627 25.9513L29.4004 26.4107C28.9902 26.8585 28.5855 27.2055 28.0667 27.5331C27.8028 27.6788 27.5447 27.8011 27.2625 27.9148C26.6376 28.1126 26.1105 28.1884 25.4539 28.1645L24.8478 28.0803C24.3347 27.9524 23.9189 27.7866 23.4598 27.5331C23.2074 27.3748 22.9792 27.209 22.747 27.024C22.0576 26.405 21.5808 25.753 21.1631 24.9329C20.8293 24.1658 20.6489 23.4425 20.5 22.6147V38.5461L31.073 25.5557V22.6045Z" fill="#50B848"/>
<path d="M25.7661 25.5215C24.2739 25.5215 23.0552 23.618 23.0552 21.2821C23.0552 18.9458 24.2739 17.038 25.7661 17.038C27.2563 17.038 28.4706 18.9461 28.4706 21.2821C28.4706 23.618 27.2563 25.5215 25.7661 25.5215ZM25.7661 15.935C23.653 15.935 21.929 18.3354 21.929 21.2818C21.929 24.226 23.653 26.6268 25.7661 26.6268C27.8769 26.6268 29.5992 24.2258 29.5992 21.2818C29.5992 18.3357 27.8769 15.935 25.7661 15.935ZM31.0732 32.0209L24.9071 39.5959H31.0732V32.0209ZM44.9867 13.5H42.0153L20.8184 39.5959H23.746L44.9867 13.5ZM33.8084 37.7996H31.9946V39.5959H33.8084V37.7996Z" fill="#50B848"/>
<path d="M46.2071 37.7998V39.5961C47.4465 39.5961 48.4536 40.5895 48.4536 41.8146C48.4536 43.0405 47.4465 44.0339 46.2071 44.0339C45.2946 44.0339 44.4609 43.8294 42.7286 43.4039C39.372 42.5817 35.2395 41.5668 31.9298 40.7551C25.9817 39.2972 20.5249 40.951 20.502 44.8153H22.3152C22.3152 43.3786 25.0979 42.4253 31.057 43.885C36.2112 45.1496 38.1496 45.6251 42.0314 46.5771C44.5942 47.2053 46.695 47.0539 48.2047 46.3344L48.2104 46.3401C49.7201 45.6071 50.7581 44.0721 50.7581 42.3C50.7584 39.8135 48.7194 37.7998 46.2071 37.7998ZM114.01 33.1195H108.694V35.6052H114.01V33.1195ZM137.042 31.4693H132.019V26.5597H129.201V39.5961H132.019V33.9447H137.042V39.5961H139.859V26.5597H137.042V31.4693ZM118.269 34.7651V26.5595H115.452V39.5959H117.616L124.168 31.3526V39.5959H126.985V26.5595H124.791L118.269 34.7651ZM167.871 26.274C166.034 26.2732 164.402 26.7619 163.092 27.9958C161.975 29.0314 161.001 30.7363 161.001 33.0879C160.998 34.9863 161.591 36.6285 163.091 38.0638C164.176 39.0957 165.587 39.8848 167.852 39.8816C169.251 39.8816 170.292 39.5303 171.072 39.1201L171.163 39.0715V35.6077L170.862 35.9641C170.149 36.8038 169.152 37.2921 168.024 37.2932C166.998 37.2932 165.963 36.9258 165.189 36.2246C164.415 35.522 163.895 34.4896 163.894 33.126C163.894 31.9961 164.294 30.928 164.998 30.1461C165.7 29.3642 166.701 28.8645 167.928 28.8635C168.364 28.8643 169.749 28.9527 170.863 30.2321L171.164 30.578V27.1244L171.075 27.0758C169.885 26.4313 168.784 26.274 167.871 26.274ZM104.505 32.0568C104.027 32.4159 103.47 32.4216 102.993 32.421H102.155V29.0341H102.84C103.423 29.0333 104.03 29.0769 104.489 29.401C104.815 29.6429 105.122 30.0633 105.122 30.7084C105.124 31.2139 104.913 31.734 104.505 32.0568ZM106.664 27.5728C106.18 27.1473 105.67 26.8895 105.105 26.7441C104.539 26.5974 103.921 26.5597 103.201 26.5597H99.3377V39.5961H102.155V34.8957H103.582C105.078 34.8965 106.178 34.4648 106.919 33.7225C107.943 32.6928 108.015 31.2768 108.016 30.7659C108.016 29.8217 107.741 28.531 106.665 27.5736L106.664 27.5728ZM171.974 26.5597V29.0344H174.829V39.5964H177.647V29.0344H180.5V26.5597H171.974ZM68.7373 39.5961H76.122V37.1215H71.5541V34.0012H75.9317V31.5265H71.5541V29.0341H76.122V26.5595H68.7373V39.5961ZM147.942 36.3103C147.835 36.542 147.665 36.754 147.392 36.9177C146.894 37.212 146.238 37.2368 145.786 37.2354H144.892V34.0775H145.634C146.166 34.0762 146.771 34.0821 147.255 34.309L147.262 34.3122L147.257 34.3098C147.622 34.4759 147.821 34.7038 147.94 34.939C148.057 35.1736 148.088 35.419 148.088 35.5999C148.088 35.8276 148.049 36.0789 147.942 36.3103ZM144.892 28.9202H145.443C145.924 28.9202 146.365 29.0261 146.672 29.2518C146.978 29.4782 147.172 29.8106 147.175 30.3477C147.175 30.7248 147.087 30.9938 146.956 31.1943C146.761 31.4945 146.457 31.6547 146.153 31.7408C145.852 31.8254 145.562 31.8313 145.424 31.8313H144.892V28.9202ZM148.678 32.571C148.846 32.4463 149.037 32.2799 149.218 32.0523C149.553 31.6324 149.841 31.0134 149.84 30.1566C149.839 29.0446 149.386 28.0058 148.593 27.3946C147.504 26.5517 146.093 26.5622 145.386 26.5595H142.074V39.5959H146.509C147.63 39.5967 148.842 39.4023 149.838 38.5258C150.764 37.6999 150.981 36.5984 150.981 35.8278C150.98 35.1381 150.826 34.0977 150.013 33.3244C149.733 33.0591 149.313 32.7481 148.678 32.571ZM152.509 39.5961H159.894V37.1215H155.326V34.0012H159.703V31.5265H155.326V29.0341H159.894V26.5595H152.509V39.5961ZM66.0363 26.5597H63.2187V37.1217H58.5381V26.5597H55.721V39.5961H64.9319V42.4506H67.5581V37.1215H66.0363V26.5597ZM85.7976 31.4693H80.7741V26.5597H77.957V39.5961H80.7741V33.9447H85.7976V39.5961H88.6147V26.5597H85.7976V31.4693ZM89.7129 29.0341H92.5682V39.5961H95.385V29.0341H98.2393V26.5595H89.7134L89.7129 29.0341ZM80.4487 17.4207H76.5353V13.5244H74.2276V23.9424H76.5353V19.4567H80.4487V23.9418H82.7573V13.5244H80.4487V17.4207ZM67.0503 19.8822L68.2442 16.8984L69.4123 19.8822H67.0503ZM67.3167 13.5244L62.8955 23.9424H65.4005L66.2913 21.8279H70.1249L71.0156 23.9424H73.5021L69.2038 13.5244H67.3167ZM88.7654 18.3536L93.1876 13.5244H90.2402L86.7916 17.4941V13.5244H84.484V23.9424H86.7916V19.5518L86.8304 19.5137L90.3415 23.9426H93.3892L88.7654 18.3536ZM60.1991 21.5112C59.972 21.7268 59.5529 21.9058 58.7923 21.9058L58.0284 21.9064V19.5629H58.8227C59.5433 19.5634 59.9534 19.7403 60.1848 19.9633C60.4157 20.1872 60.4915 20.477 60.4926 20.7648C60.4913 21.0231 60.4262 21.296 60.1991 21.5112ZM61.8524 18.3859C61.0167 17.6486 59.987 17.5268 59.2153 17.5268H58.029V15.561H61.8946V13.5247H55.7206V23.9426H59.2299C59.6768 23.9421 60.2268 23.9085 60.7727 23.7298C61.318 23.5524 61.8612 23.2245 62.27 22.6458L62.2727 22.642L62.2708 22.6447C62.6375 22.1182 62.8603 21.4648 62.8603 20.7487C62.8614 19.7521 62.4628 18.931 61.8524 18.3859Z" fill="#50B848"/>
</svg>
