<svg width="200" height="51" viewBox="0 0 200 51" fill="none" xmlns="http://www.w3.org/2000/svg">
<path d="M54.3522 43.0899H41.5493V37.6798H54.3239V43.0899H54.3522ZM56.9298 34.9606H39V48.5H41.5493V45.7808H56.8732V34.9606H56.9298ZM41.5493 10.6293L46.6761 5.21921V24.1687H41.5493V10.6293ZM39 26.8596H49.197V2.5H45.4015L39 9.2697V26.8596ZM54.3522 5.21921H59.4791V24.1687H54.3522V5.21921ZM51.803 26.8596H62V2.5H51.803V26.8596ZM79.8732 26.8596H82.4224V2.5H78.5702V2.52833L74.718 6.57882V2.5H70.8658L64.5209 9.2697V26.8596H67.0702V10.6293L72.197 5.21921V26.8596H74.7463V10.6293L79.8732 5.21921V26.8596ZM39 32.2697H82.4507V29.5505H39V32.2697ZM72.2254 37.6798H79.8732V43.0899H72.2254V37.6798ZM69.6761 43.0899H62V37.6798H69.6761V43.0899ZM72.2254 45.7808H82.4507V34.9606H59.4791V45.7808H69.6761V48.5H72.2254V45.7808ZM120.463 26.4064H122.701C123.692 26.4064 124.287 27.1145 124.287 28.0776C124.287 29.0973 123.692 29.7488 122.701 29.7488H120.463V26.4064ZM120.463 24.282V21.8461H125.788V19.7217H118.169V31.9015H122.786C125.08 31.9015 126.525 30.3153 126.525 28.1059C126.525 25.8966 125.108 24.3103 122.786 24.3103C122.814 24.282 120.463 24.282 120.463 24.282ZM134.824 27.7377H131.963L133.436 23.319L134.824 27.7377ZM136.127 31.9015H138.478L134.314 19.7217H132.558L128.394 31.9015H130.745L131.453 29.7488H135.504L136.127 31.9015ZM146.947 31.9015H149.185V19.7217H146.947V24.7069H143.066V19.7217H140.829V31.9015H143.066V26.803H146.947V31.9015ZM157.427 25.415L161.28 19.7217H158.617L154.935 25.5V19.7217H152.697V31.9015H154.935V25.5283L158.957 31.9015H161.704L157.427 25.415Z" fill="#384249"/>
<path d="M102.307 7.68359H100.324V43.3166H102.307V7.68359Z" fill="#99C45A"/>
</svg>
