<svg width="200" height="51" viewBox="0 0 200 51" fill="none" xmlns="http://www.w3.org/2000/svg">
<path d="M45.5677 15.5859H25V36.1536H45.5677V15.5859Z" fill="#335497"/>
<path d="M44.4263 16.8145H26.2754V35.2123H44.4263V16.8145Z" fill="white"/>
<path d="M26.625 17.2627H44.0715V34.7452H26.625V17.2627Z" fill="#335497"/>
<path d="M27.1649 20.9487H28.62V18.1309H43.2539V34.0194H28.5943V33.1762H27.1392L27.1649 20.9487Z" fill="white"/>
<path d="M27.8643 21.6025H33.5513C31.7053 23.4227 29.8851 25.2378 28.07 27.0529C29.8851 28.9194 31.7053 30.7859 33.5513 32.6473H27.8643V21.6025Z" fill="#335497"/>
<path d="M34.7387 21.5664H35.9059C33.9931 23.3815 32.07 25.2171 30.1675 27.0476C32.07 28.9296 33.9931 30.8115 35.9059 32.7037H34.7387C32.8122 30.8218 30.8976 28.9364 28.9951 27.0476C30.9131 25.2171 32.8104 23.3815 34.7387 21.5664ZM36.5023 23.8547H42.4567V32.6731H36.5023V32.5754C36.6325 32.5835 36.763 32.5835 36.8931 32.5754C39.6543 32.5908 41.9168 30.9454 41.9168 28.8886C41.9168 26.8319 39.6543 25.1607 36.8931 25.1607H36.5023V23.8547Z" fill="#335497"/>
<path d="M64.6135 34.2309L64.85 36.1642L65.0351 36.3596H65.1688C65.4593 36.3391 65.7304 36.2063 65.9247 35.9894C66.179 35.6888 66.3681 35.3386 66.48 34.961L63.1018 27.6389L62.4231 27.4744V26.5334H66.2743V27.4744L65.7242 27.5412L65.5905 27.7829L67.6164 32.2358L69.0098 27.9115L68.9019 27.6235L68.2746 27.4744V26.5334H71.0203V27.4744L70.429 27.6235L68.0843 34.5085C67.8524 35.4005 67.4218 36.2285 66.8245 36.9304C66.5968 37.1686 66.3219 37.3566 66.0173 37.4823C65.7127 37.6081 65.3851 37.6687 65.0557 37.6605C64.4792 37.6457 63.9134 37.5016 63.4 37.2389V34.2309H64.6135ZM79.7206 26.5334V29.7985H78.4762L78.2654 27.8292L78.0546 27.6389H75.5916V31.1303C76.0315 31.0714 76.4745 31.0388 76.9182 31.0326C77.7901 30.978 78.6527 31.237 79.3504 31.7627C79.7036 32.0723 79.9804 32.4595 80.1588 32.894C80.3372 33.3285 80.4125 33.7984 80.3787 34.2669C80.4235 35.1046 80.1372 35.9263 79.5817 36.555C79.2451 36.8612 78.8505 37.0967 78.4213 37.2477C77.9921 37.3987 77.5369 37.4622 77.0828 37.4343H72.4088V36.4933L73.0258 36.4265L73.2366 36.1179V27.7829L73.0258 27.5412L72.4088 27.4744V26.5334H79.7206ZM75.607 36.3031C75.8084 36.327 76.0111 36.3373 76.2138 36.3339C76.4577 36.3615 76.7047 36.3291 76.9332 36.2395C77.1617 36.1498 77.3648 36.0058 77.525 35.8197C77.8345 35.3797 77.9768 34.8436 77.926 34.308C77.9743 33.6947 77.7909 33.0855 77.4119 32.6009C77.2732 32.4522 77.1025 32.337 76.9128 32.264C76.723 32.191 76.5192 32.162 76.3166 32.1792C76.0699 32.1776 75.8241 32.2104 75.5865 32.2769L75.607 36.3031ZM87.022 26.5334L90.1072 36.3596L90.6985 36.4933V37.4343H86.842V36.4933L87.5259 36.411L87.6288 36.2002L86.9295 33.7784H84.1117L83.4484 36.1848L83.5821 36.375L84.2042 36.4933V37.4343H81.4585V36.4933L82.096 36.4265L85.1298 26.5334H87.022ZM84.4099 32.7037H86.5335L85.4589 29.1044L84.4099 32.7037ZM96.2518 26.5334V27.4744L95.6811 27.5412L95.4651 27.7829V31.1149H98.7714V27.7829L98.5605 27.5412L97.9846 27.4744V26.5334H101.944V27.4744L101.337 27.5412L101.131 27.7829V36.1179L101.337 36.4265L101.944 36.4933V37.4343H97.9846V36.4933L98.5605 36.4265L98.7714 36.1179V32.3181H95.4651V36.1179L95.6811 36.4265L96.2518 36.4933V37.4343H92.2977V36.4933L92.8839 36.4265L93.1101 36.1179V27.7829L92.8839 27.5412L92.2977 27.4744V26.5334H96.2518ZM107.816 26.5334V27.4744L107.142 27.5412L106.916 27.7829V30.8681C107.383 30.8069 107.853 30.7743 108.325 30.7704C108.783 30.7266 109.245 30.7859 109.677 30.9438C110.109 31.1018 110.501 31.3544 110.823 31.6833C111.145 32.0121 111.389 32.4088 111.538 32.8442C111.686 33.2797 111.736 33.743 111.682 34.2C111.735 35.059 111.449 35.9044 110.885 36.555C110.549 36.8616 110.155 37.0975 109.725 37.2486C109.296 37.3996 108.841 37.4628 108.386 37.4343H103.759V36.4933L104.371 36.4265L104.587 36.1179V27.7829L104.371 27.5412L103.759 27.4744V26.5334H107.816ZM106.916 36.3031C107.08 36.3031 107.291 36.3339 107.528 36.3339C107.771 36.3584 108.017 36.3246 108.245 36.2352C108.473 36.1458 108.677 36.0034 108.839 35.8197C109.137 35.3629 109.276 34.8209 109.235 34.2771C109.277 33.6416 109.114 33.0094 108.772 32.4723C108.632 32.315 108.458 32.1923 108.262 32.1138C108.067 32.0353 107.856 32.0031 107.646 32.0198C107.399 32.0159 107.153 32.0489 106.916 32.1175V36.3031ZM127.119 36.4933L127.746 36.4265L128.003 36.1179V27.7829L127.828 27.5412L127.119 27.4744V26.5334H131.181C132.677 26.5334 133.376 26.9036 133.68 27.1196C134.569 27.7161 134.883 28.6622 134.883 29.8294C134.917 30.3207 134.852 30.8138 134.693 31.28C134.534 31.7461 134.284 32.1759 133.957 32.5443C133.576 32.8906 133.13 33.1568 132.644 33.3273C132.158 33.4978 131.643 33.569 131.129 33.5367C130.868 33.536 130.607 33.5188 130.348 33.4853V36.1179L130.543 36.4265L131.304 36.4933V37.4343H127.119V36.4933ZM130.358 32.3798H130.466C130.715 32.3994 130.965 32.3691 131.201 32.2905C131.438 32.2119 131.656 32.0866 131.844 31.9221C132.259 31.3668 132.46 30.6803 132.41 29.9888C132.424 29.4353 132.315 28.8855 132.091 28.3794C131.986 28.1526 131.817 27.9613 131.605 27.8289C131.393 27.6965 131.148 27.6287 130.898 27.6338H130.358V32.3798ZM136.322 36.4933L136.996 36.4265L137.207 36.1179V27.7829L136.996 27.5412L136.322 27.4744V26.5334H143.166V29.2432H142.246L142.035 27.8138L141.85 27.6389H139.505V31.2228H140.899L141.094 31.0017L141.228 29.8294H142.169V33.8247H141.228L141.094 32.6574L140.899 32.4312H139.505V36.3288H142.256L142.446 36.0665L142.657 34.2823H143.578V37.4343H136.322V36.4933ZM154.067 26.5334V27.4744L153.465 27.5412L153.25 27.7829V36.1334L153.414 36.3288H154.17V39.1722H153.064L152.72 37.7171L152.535 37.4549H146.688L146.503 37.7171L146.159 39.1722H145.064V36.3288H145.506C146.294 34.9927 146.909 33.5621 147.336 32.0713C147.729 30.6937 148 29.2846 148.149 27.86L147.938 27.6184L147.038 27.4898V26.5334H154.067ZM150.895 36.3031V27.6389H149.414C149.252 29.3601 148.923 31.0615 148.432 32.7191C148.042 33.9686 147.525 35.1747 146.889 36.3185L150.895 36.3031ZM159.816 26.5334V27.4744L159.24 27.5412L159.029 27.7829V33.7784L162.551 28.2405V27.7829L162.336 27.5412L161.76 27.4744V26.5334H165.719V27.4744L165.112 27.5412L164.901 27.7829V36.1179L165.112 36.4265L165.719 36.4933V37.4343H161.76V36.4933L162.336 36.4265L162.551 36.1179V29.9939L159.029 35.5369V36.1179L159.24 36.4265L159.816 36.4933V37.4343H155.857V36.4933L156.448 36.4265L156.669 36.1179V27.7829L156.448 27.5412L155.857 27.4744V26.5334H159.816ZM175 26.5334V29.3049H174.11L173.828 27.8292L173.591 27.6389H172.331V36.1179L172.588 36.4265L173.257 36.4933V37.4343H169.056V36.4933L169.724 36.4265L169.982 36.1179V27.6389H168.696L168.465 27.8292L168.202 29.3049H167.308V26.5334H175ZM60.6903 36.4265L60.4795 36.0048L58.2787 30.3539L60.4435 27.5412L60.9937 27.4744V26.5334H58.0371V27.4744L58.3044 27.6235L58.4124 27.9166L55.4764 31.6342V27.7829L55.6872 27.5412L56.2374 27.4744V26.5334H52.2524V27.4744L52.9054 27.5412L53.1214 27.7829V36.1179L52.9054 36.4265L52.2524 36.4933V37.4343H56.2374V36.4933L55.6872 36.4265L55.4764 36.1179V33.9892L56.5253 32.6317L58.433 37.4343H61.2405V36.4933L60.6903 36.4265ZM125.149 36.4265L124.933 36.0048L122.738 30.3539L124.902 27.5412L125.668 27.4744V26.5334H122.496V27.4744L122.763 27.6235L122.871 27.9166L119.93 31.6342V27.7829L120.146 27.5412L120.696 27.4744V26.5334H116.711V27.4744L117.364 27.5412L117.58 27.7829V36.1179L117.364 36.4265L116.711 36.4933V37.4343H120.696V36.4933L120.146 36.4265L119.93 36.1179V33.9892L120.979 32.6317L122.892 37.4343H125.915V36.4933L125.149 36.4265ZM52.2524 20.7694L52.9054 20.7334L53.0597 20.5483V15.4835L52.9054 15.3344L52.2524 15.2984V14.7225H55.5484V15.2984L54.9776 15.3344L54.8182 15.4835V17.5763H55.2604C55.4662 17.5882 55.6698 17.5282 55.8363 17.4066C56.0102 17.2431 56.1424 17.0403 56.222 16.8153L56.6179 15.864C56.7391 15.4687 56.9647 15.1135 57.2709 14.8357C57.4977 14.6406 57.7895 14.5378 58.0885 14.5477C58.2374 14.5375 58.3867 14.5598 58.5261 14.613C58.6655 14.6663 58.7916 14.7493 58.8958 14.8562C59.0465 15.0156 59.1279 15.2282 59.122 15.4475C59.1325 15.6736 59.0564 15.8952 58.9093 16.0671C58.7622 16.2391 58.5551 16.3485 58.3301 16.3731L57.5229 15.6841C57.4384 15.8163 57.3694 15.9578 57.3172 16.1057L57.0035 16.9078C56.9523 17.1016 56.8608 17.2823 56.735 17.4382C56.6092 17.5942 56.4519 17.7218 56.2734 17.8128C56.5938 17.8723 56.8912 18.0201 57.1321 18.2396C57.4147 18.499 57.6406 18.8141 57.7954 19.1651L58.4021 20.502L58.5872 20.6563L59.2865 20.7129V21.2888H56.7156V20.9031L55.9237 19.1189C55.8487 18.9042 55.7316 18.7066 55.5792 18.5378C55.5108 18.4733 55.4299 18.4235 55.3414 18.3917C55.2529 18.3598 55.1589 18.3466 55.065 18.3527H54.7976V20.574L54.957 20.7591L55.5278 20.7951V21.371H52.2524V20.7694ZM65.4104 15.2829C65.8108 15.6029 66.1364 16.0064 66.3645 16.4654C66.5926 16.9243 66.7176 17.4275 66.7309 17.9399C66.7441 18.4522 66.6452 18.9612 66.4411 19.4313C66.237 19.9014 65.9326 20.3212 65.5492 20.6614C64.8345 21.2217 63.948 21.5178 63.04 21.4995C62.1932 21.519 61.3648 21.2507 60.6901 20.7385C60.2901 20.4046 59.9719 19.9835 59.7598 19.5076C59.5477 19.0316 59.4473 18.5134 59.4664 17.9927C59.4478 17.481 59.5488 16.972 59.7612 16.5061C59.9736 16.0402 60.2917 15.6302 60.6901 15.3086C61.4042 14.7993 62.2661 14.5391 63.1428 14.5682C63.9544 14.5503 64.7499 14.7957 65.4104 15.2675V15.2829ZM62.0065 15.9051C61.6011 16.55 61.4037 17.3039 61.4408 18.0647C61.3962 18.8195 61.6023 19.5679 62.027 20.1935C62.1508 20.369 62.3149 20.5125 62.5054 20.6117C62.6959 20.711 62.9074 20.7633 63.1223 20.7642C63.3257 20.7658 63.5268 20.7202 63.7097 20.631C63.8926 20.5418 64.0524 20.4114 64.1764 20.25C64.6006 19.5819 64.8072 18.7986 64.7677 18.0082C64.8181 17.2854 64.6381 16.5653 64.2535 15.9514C64.1258 15.7621 63.9534 15.6073 63.7516 15.5006C63.5498 15.3938 63.3248 15.3385 63.0965 15.3395C62.8827 15.3389 62.6719 15.3901 62.4821 15.4886C62.2923 15.5871 62.1291 15.73 62.0065 15.9051ZM67.3491 20.7746L68.0432 20.7335L68.1615 20.5484V15.4836L68.0432 15.3345L67.3491 15.2985V14.7226H70.5371V15.0105L71.9048 19.1446L73.252 15.0002V14.7226H76.4503V15.2985L75.715 15.3345L75.5916 15.4836V20.5484L75.715 20.7335L76.4503 20.7746V21.3454H73.252V20.7746L73.869 20.7335L73.9564 20.5484V15.4527H73.9359L72.0025 21.3454H71.005L69.0665 15.4527H69.0511V20.5484L69.1693 20.7335L69.8172 20.7746V21.3454H67.3491V20.7746ZM76.9541 20.7746L77.6482 20.7335L77.7613 20.5484V15.4836L77.6482 15.3345L76.9541 15.2985V14.7226H80.142V15.0105L81.5047 19.1446L82.857 15.0002V14.7226H86.0552V15.2985L85.3148 15.3345L85.1965 15.4836V20.5484L85.3148 20.7335L86.0552 20.7746V21.3454H82.857V20.7746L83.4689 20.7335L83.5563 20.5484V15.4527H83.5409L81.6024 21.3454H80.61L78.6715 15.4527H78.6509V20.5484L78.7743 20.7335L79.4222 20.7746V21.3454H76.9541V20.7746ZM86.6054 20.7746L87.2636 20.7335L87.423 20.5484V15.4836L87.2636 15.3345L86.6054 15.2985V14.7226H92.0353V16.368H91.1869L91.0275 15.5041L90.8886 15.3962H89.1455V17.5763H90.1791L90.3282 17.4375L90.4259 16.7228H91.1303V19.1549H90.4259L90.3282 18.4402L90.1791 18.3065H89.1455V20.6769H91.1972L91.336 20.5175L91.4902 19.4326H92.3387V21.3454H86.6054V20.7746ZM92.9556 20.7694L93.583 20.7334L93.7732 20.5483V15.4835L93.6447 15.3344L92.9556 15.2984V14.7225H96.1488C96.7912 14.6764 97.4346 14.7987 98.0153 15.0773C98.3091 15.2343 98.5507 15.4736 98.7105 15.7659C98.8703 16.0582 98.9414 16.3907 98.9151 16.7228C98.9313 17.0324 98.8773 17.3417 98.7571 17.6275C98.6369 17.9134 98.4536 18.1683 98.221 18.3733C97.6063 18.81 96.8602 19.0224 96.1076 18.9749C95.9135 18.975 95.7196 18.9647 95.5266 18.9441V20.5483L95.6757 20.7334L96.4059 20.7694V21.3453H92.9556V20.7694ZM95.5266 18.2756H95.6089C95.9735 18.3054 96.3372 18.2072 96.6373 17.9979C96.7877 17.8442 96.9036 17.66 96.9772 17.4578C97.0508 17.2557 97.0804 17.0401 97.064 16.8256C97.0745 16.4846 96.9927 16.1471 96.8275 15.8486C96.7328 15.701 96.6005 15.5812 96.4441 15.5017C96.2878 15.4222 96.1131 15.3857 95.938 15.3961H95.5317L95.5266 18.2756ZM102.278 14.7226V15.2985L101.764 15.3345L101.604 15.4836V16.805C101.57 17.1131 101.642 17.4236 101.81 17.6843C101.911 17.7925 102.035 17.876 102.173 17.9286C102.311 17.9812 102.46 18.0014 102.607 17.9877C102.993 17.9784 103.374 17.9019 103.733 17.7614V15.4836L103.569 15.3345L103.054 15.2985V14.7226H106.289V15.2985L105.677 15.3345L105.517 15.4836V20.5484L105.677 20.7335L106.289 20.7695V21.3454H102.88V20.7695L103.615 20.7335L103.759 20.5484V18.4916C103.216 18.6314 102.659 18.7073 102.098 18.7178C101.777 18.748 101.453 18.7114 101.147 18.6106C100.841 18.5097 100.559 18.3467 100.319 18.1317C100.025 17.7461 99.8939 17.2605 99.954 16.7793V15.4836L99.7844 15.3345L99.2445 15.2985V14.7226H102.278ZM106.803 20.7746L107.461 20.7335L107.615 20.5484V15.4836L107.461 15.3345L106.803 15.2985V14.7226H112.228V16.368H111.374L111.22 15.5041L111.081 15.3962H109.333V17.5763H110.371L110.52 17.4375L110.618 16.7228H111.317V19.1549H110.618L110.52 18.4402L110.371 18.3065H109.333V20.6769H111.389L111.523 20.5175L111.683 19.4326H112.536V21.3454H106.803V20.7746ZM119.169 21.1087C118.487 21.3512 117.769 21.4781 117.045 21.4841C116.552 21.5176 116.056 21.452 115.588 21.2913C115.12 21.1306 114.689 20.878 114.32 20.5482C113.938 20.1865 113.645 19.7416 113.462 19.2481C113.28 18.7546 113.214 18.2258 113.269 17.7026C113.325 17.1795 113.5 16.6761 113.781 16.2315C114.062 15.7869 114.442 15.413 114.891 15.1389C115.558 14.7468 116.324 14.5574 117.097 14.5939C117.801 14.5997 118.498 14.7339 119.153 14.9898V16.7792H118.243L118.007 15.5606L117.837 15.4063C117.669 15.3619 117.496 15.3411 117.323 15.3446C117.061 15.3374 116.801 15.3828 116.557 15.4782C116.313 15.5736 116.091 15.717 115.904 15.8999C115.646 16.1863 115.448 16.5211 115.321 16.8848C115.194 17.2485 115.14 17.6338 115.163 18.0184C115.133 18.7133 115.329 19.3993 115.724 19.9723C115.915 20.2128 116.158 20.4065 116.435 20.5384C116.712 20.6703 117.016 20.737 117.323 20.7333C117.503 20.7333 117.729 20.7025 117.837 20.6922L117.991 20.5482L118.243 19.2628H119.153L119.169 21.1087ZM119.868 20.7694L120.516 20.7334L120.676 20.5483V15.4835L120.516 15.3344L119.868 15.2984V14.7225H123.164V15.2984L122.588 15.3344L122.429 15.4835V17.5763H122.876C123.081 17.5878 123.282 17.5278 123.447 17.4066C123.623 17.2444 123.755 17.0413 123.833 16.8153L124.229 15.864C124.352 15.4697 124.577 15.1149 124.882 14.8357C125.109 14.6414 125.4 14.5388 125.699 14.5477C125.848 14.5375 125.997 14.5598 126.137 14.613C126.276 14.6663 126.402 14.7493 126.507 14.8562C126.583 14.934 126.643 15.0265 126.683 15.1282C126.723 15.2298 126.741 15.3385 126.738 15.4475C126.747 15.6733 126.671 15.8942 126.524 16.0659C126.377 16.2376 126.171 16.3473 125.946 16.3731L125.139 15.6841C125.048 15.8128 124.979 15.9552 124.933 16.1057L124.614 16.9078C124.393 17.4529 124.182 17.6894 123.884 17.8128C124.205 17.8712 124.503 18.0192 124.743 18.2396C125.026 18.4975 125.25 18.8131 125.401 19.1651L126.018 20.502L126.203 20.6563L126.897 20.7129V21.2888H124.326V20.9031L123.519 19.1189C123.442 18.9051 123.325 18.708 123.175 18.5378C123.106 18.474 123.025 18.4248 122.936 18.393C122.848 18.3612 122.754 18.3475 122.66 18.3527H122.393V20.574L122.552 20.7591L123.128 20.7951V21.371H119.868V20.7694ZM130.425 14.7226V15.2985L129.833 15.3345L129.674 15.4836V19.124L132.302 15.7561V15.4836L132.142 15.3345L131.551 15.2985V14.7226H134.826V15.2985L134.214 15.3345L134.06 15.4836V20.5484L134.214 20.7335L134.826 20.7746V21.3454H131.551V20.7746L132.142 20.7335L132.302 20.5484V16.8256L129.674 20.1936V20.5484L129.833 20.7335L130.425 20.7746V21.3454H127.149V20.7746L127.751 20.7335L127.916 20.5484V15.4836L127.751 15.3345L127.149 15.2985V14.7226H130.425ZM138.657 14.7225V15.2984L138.066 15.3344L137.906 15.4835V19.1188L140.534 15.7509V15.4784L140.374 15.3292L139.783 15.2933V14.7225H143.058V15.2984L142.447 15.3344L142.287 15.4835V20.5483L142.447 20.7334L143.058 20.7694V21.3453H139.783V20.7694L140.374 20.7334L140.534 20.5483V16.8255L137.906 20.1935V20.5483L138.066 20.7334L138.657 20.7694V21.3453H135.382V20.7694L135.983 20.7334L136.148 20.5483V15.4835L135.983 15.3344L135.382 15.2984V14.7225H138.657ZM138.41 13.5861C138.945 13.689 139.495 13.689 140.03 13.5861V12.7377C140.221 12.5735 140.467 12.4888 140.719 12.5012C141.31 12.5012 141.547 12.8457 141.547 13.1748C141.543 13.3476 141.49 13.5157 141.392 13.6583C141.294 13.8008 141.157 13.9116 140.997 13.9769C139.843 14.3608 138.597 14.3608 137.443 13.9769C137.284 13.9122 137.146 13.8024 137.047 13.6609C136.949 13.5194 136.894 13.3523 136.888 13.1799C136.888 12.8508 137.13 12.5063 137.721 12.5063C137.973 12.495 138.219 12.5795 138.41 12.7429V13.5861ZM151.527 14.7226V16.7073H150.597L150.442 15.5093L150.283 15.3962H148.447V17.5146C148.73 17.4889 149.136 17.4581 149.434 17.4581C150.07 17.4209 150.702 17.5749 151.25 17.9003C151.5 18.0679 151.702 18.299 151.833 18.5701C151.965 18.8411 152.023 19.1423 152 19.4428C152.012 19.705 151.964 19.9664 151.861 20.2076C151.758 20.4488 151.601 20.6637 151.404 20.8363C150.861 21.2161 150.203 21.3976 149.542 21.3505H145.907V20.7695L146.529 20.7335L146.689 20.5484V15.4836L146.529 15.3345L145.907 15.2985V14.7226H151.527ZM148.442 20.6666C148.593 20.6759 148.744 20.6759 148.895 20.6666C149.071 20.6834 149.25 20.6628 149.418 20.6061C149.586 20.5494 149.741 20.4579 149.872 20.3375C149.982 20.2132 150.065 20.067 150.116 19.9085C150.166 19.7499 150.183 19.5825 150.165 19.4171C150.183 19.2295 150.159 19.0401 150.096 18.8625C150.033 18.6848 149.932 18.5231 149.8 18.3888C149.573 18.1989 149.281 18.1065 148.987 18.1317C148.804 18.1302 148.621 18.1492 148.442 18.1882V20.6666ZM156.51 14.6711L158.803 20.6922L159.4 20.7694V21.3453H156.201V20.7694L156.875 20.7231L156.957 20.5945L156.443 19.124H154.319L153.805 20.5843L153.903 20.7025L154.535 20.7694V21.3453H152.155V20.7694L152.797 20.7334L155.055 14.6711H156.51ZM154.566 18.4658H156.145L155.348 16.2805L154.566 18.4658ZM162.814 14.7226V15.2985L162.222 15.3345L162.063 15.4836V17.5043H164.531V15.4836L164.377 15.3345L163.78 15.2985V14.7226H167.056V15.2985L166.449 15.3345L166.29 15.4836V20.5484L166.449 20.7335L167.056 20.7746V21.3454H163.78V20.7746L164.377 20.7335L164.531 20.5484V18.2396H162.063V20.5484L162.222 20.7335L162.814 20.7746V21.3454H159.538V20.7746L160.14 20.7335L160.304 20.5484V15.4836L160.14 15.3345L159.538 15.2985V14.7226H162.814ZM167.611 20.7694L168.259 20.7334L168.424 20.5483V15.4835L168.259 15.3344L167.611 15.2984V14.7225H170.907V15.2984L170.336 15.3344L170.177 15.4835V17.5763H170.619C170.825 17.5882 171.029 17.5282 171.195 17.4066C171.369 17.2441 171.5 17.0409 171.576 16.8153L171.971 15.864C172.095 15.4697 172.32 15.1149 172.624 14.8357C172.852 14.6423 173.143 14.5398 173.442 14.5477C173.592 14.5367 173.742 14.5586 173.882 14.6119C174.023 14.6652 174.15 14.7486 174.254 14.8562C174.405 15.0156 174.487 15.2283 174.481 15.4475C174.491 15.6736 174.415 15.8952 174.268 16.0671C174.121 16.2391 173.914 16.3485 173.689 16.3731L172.882 15.6841C172.795 15.8152 172.726 15.9569 172.676 16.1057L172.357 16.9079C172.141 17.4529 171.925 17.6894 171.627 17.8128C171.948 17.8704 172.246 18.0185 172.486 18.2396C172.77 18.4976 172.996 18.8131 173.149 19.1652L173.761 20.5021L173.951 20.6563L174.64 20.7129V21.2888H172.069V20.9031L171.288 19.1189C171.215 18.9033 171.097 18.7053 170.943 18.5378C170.875 18.4733 170.794 18.4235 170.705 18.3917C170.617 18.3598 170.523 18.3466 170.429 18.3527H170.162V20.574L170.321 20.7591L170.892 20.7951V21.371H167.596L167.611 20.7694Z" fill="#335497"/>
<path d="M36.8674 26.374C37.6644 26.374 38.2968 27.5721 38.2968 29.0633C38.2968 30.5544 37.6644 31.7422 36.8674 31.7422C36.0704 31.7422 35.4277 30.5236 35.4277 29.0478C35.4277 27.5721 36.055 26.3689 36.8674 26.374Z" fill="#B4966A"/>
<path d="M36.5692 26.3482C37.361 26.3482 37.9986 27.5462 37.9986 29.0374C37.9986 30.5285 37.361 31.7163 36.5692 31.7163C35.7773 31.7163 35.1294 30.4977 35.1294 29.022C35.1294 27.5462 35.7722 26.3173 36.5692 26.3482Z" fill="url(#paint0_linear_225_61)"/>
<defs>
<linearGradient id="paint0_linear_225_61" x1="34.1885" y1="25.6283" x2="38.955" y2="32.4362" gradientUnits="userSpaceOnUse">
<stop stop-color="#B4966A"/>
<stop offset="0.5" stop-color="#FEF0C7"/>
<stop offset="1" stop-color="#B4966A"/>
</linearGradient>
</defs>
</svg>
