<svg width="200" height="51" viewBox="0 0 200 51" fill="none" xmlns="http://www.w3.org/2000/svg">
<path d="M144.341 6.5H145.642C145.946 6.68627 146.24 6.90196 146.571 7.04657C146.931 6.94363 147.218 6.68382 147.539 6.5H148.806C148.402 7.29902 147.801 8.15686 146.797 8.1348C145.647 8.32108 144.784 7.45833 144.341 6.5ZM25 8.52206H29.2279V39.4632C31.9877 39.4681 34.7475 39.4657 37.5074 39.4657C40.3211 31.0294 43.1324 22.5956 45.9412 14.1618C48.826 14.1569 51.7108 14.1593 54.5956 14.1593C54.598 22.1446 54.5956 30.1299 54.598 38.1177C51.0539 38.1177 47.5098 38.1201 43.9681 38.1152C44.4338 36.7059 44.9044 35.2966 45.375 33.8873C47.0196 33.8922 48.6618 33.8897 50.3064 33.8897V18.4485C49.8995 18.4485 49.4926 18.451 49.0882 18.451C46.2794 26.8873 43.4632 35.3186 40.6569 43.7549H25V8.52206Z" fill="#93130A"/>
<path d="M30.5832 8.51675C32.0097 8.5241 33.4362 8.52165 34.8627 8.52165C34.8676 15.4996 34.8627 22.48 34.8651 29.4604C37.2156 22.4922 39.5293 15.5118 41.8479 8.53391C47.9754 8.5045 54.1053 8.52901 60.2327 8.52165V43.7545H42.0857C42.5612 42.3256 43.0391 40.8967 43.5146 39.4677C47.6568 39.4604 51.7989 39.4677 55.9435 39.4653V12.8109C52.3063 12.8084 48.669 12.8158 45.0318 12.8084C42.218 21.2471 39.3725 29.6761 36.5685 38.1172C34.571 38.1148 32.5734 38.1172 30.5759 38.1172C30.5808 28.2496 30.5685 18.3844 30.5832 8.51675ZM67.218 8.52165C67.946 8.52165 68.6715 8.52165 69.4019 8.51675C70.1617 10.6319 70.8578 12.7741 71.6347 14.8844C72.3651 12.7618 73.1029 10.6418 73.8308 8.5192C74.5685 8.52165 75.3038 8.52165 76.0416 8.52165V17.0388H74.3872C74.3798 15.029 74.3994 13.0217 74.3774 11.0118C73.6372 13.0045 73.0367 15.0437 72.3063 17.0413C71.843 17.0388 71.3798 17.0364 70.9166 17.0339C70.2671 15.0094 69.5318 13.0143 68.8994 10.9849C68.843 13.002 68.8847 15.0217 68.8725 17.0388C68.321 17.0388 67.7671 17.0388 67.2156 17.0364C67.218 14.1981 67.218 11.3599 67.218 8.52165ZM80.446 8.5045C82.0784 8.1246 83.946 8.60989 85.0171 9.94323C86.6298 11.7692 86.3357 14.9285 84.3382 16.3599C82.1985 18.0315 78.62 17.2913 77.5024 14.7594C76.2695 12.3452 77.7597 9.04862 80.446 8.5045ZM80.7475 10.0829C79.6396 10.3844 78.7744 11.4359 78.7352 12.5903C78.5514 14.132 79.8602 15.6099 81.4019 15.6761C83.2328 15.828 84.8602 13.931 84.3504 12.1467C84.0416 10.5756 82.2548 9.59519 80.7475 10.0829ZM86.6935 12.6221C86.7376 10.6712 88.2229 8.78881 90.1788 8.46773C92.1984 7.99959 94.3749 9.10008 95.1592 11.029C94.5489 11.0339 93.9411 11.0339 93.3332 11.029C92.3822 9.87949 90.5465 9.57557 89.3896 10.5903C88.0563 11.5854 87.9533 13.7422 89.1911 14.855C90.2695 15.9947 92.1984 15.9016 93.2131 14.7202C93.843 14.7079 94.4754 14.7104 95.1077 14.7226C94.6371 15.4971 94.1077 16.2937 93.2744 16.7177C91.6249 17.6319 89.37 17.3844 88.022 16.0413C87.1421 15.1442 86.6273 13.8844 86.6935 12.6221ZM99.8602 9.04126C100.304 8.15155 101.419 8.62949 102.206 8.5339C101.15 9.94567 100.047 11.3231 99.0048 12.7447C100.083 14.1614 101.145 15.5927 102.189 17.0339C101.537 17.0388 100.882 17.0388 100.23 17.0413C99.3749 15.8452 98.5318 14.6393 97.6715 13.4481V17.0388H96.0171V8.52165H97.6715C97.6715 9.70302 97.6641 10.8844 97.6813 12.0658C98.4313 11.0756 99.1249 10.0437 99.8602 9.04126Z" fill="#93130A"/>
<path d="M104.998 8.59859C106.618 8.09124 108.556 8.46869 109.723 9.75055C111.265 11.3045 111.351 14.0325 109.926 15.6869C108.476 17.4687 105.623 17.7629 103.779 16.432C102.15 15.3045 101.512 13.0153 102.262 11.1942C102.718 9.97114 103.752 8.9883 104.998 8.59859ZM105.743 10.0545C104.576 10.3167 103.647 11.4148 103.608 12.6158C103.463 14.008 104.522 15.3781 105.892 15.6182C107.561 16.0104 109.316 14.5986 109.316 12.8854C109.434 11.057 107.498 9.53732 105.743 10.0545ZM112.01 8.52259C113.38 8.58141 114.877 8.28729 116.127 8.99318C117.309 9.70641 117.314 11.5177 116.301 12.3854C117.907 13.1427 117.983 15.7236 116.429 16.5668C115.074 17.2922 113.48 16.9736 112.01 17.0373C112.01 14.1991 112.007 11.3609 112.01 8.52259ZM113.605 10.0863C113.603 10.6574 113.603 11.2285 113.605 11.8021C114.044 11.7653 114.495 11.7971 114.922 11.6672C115.4 11.5275 115.463 10.9221 115.328 10.5177C114.917 9.99073 114.181 10.1574 113.605 10.0863ZM113.603 13.3462C113.603 14.0496 113.603 14.7555 113.605 15.4614C114.292 15.3927 115.147 15.6305 115.684 15.0668C116.147 14.606 115.919 13.7334 115.328 13.503C114.777 13.2971 114.176 13.3805 113.603 13.3462ZM118.422 11.4246C118.863 9.99074 120.076 8.79221 121.566 8.49074C122.755 8.2579 124.081 8.38044 125.093 9.09368C125.809 9.55692 126.27 10.2898 126.679 11.0177C126.059 11.0325 125.439 11.0374 124.821 11.03C124.221 10.4172 123.453 9.86819 122.544 9.97848C120.86 9.97358 119.51 11.7261 119.885 13.3609C120.154 14.7727 121.586 15.8756 123.029 15.655C123.706 15.5864 124.203 15.0937 124.755 14.7579C125.37 14.6599 125.998 14.7163 126.618 14.7285C126.147 15.5202 125.586 16.3094 124.748 16.7432C123.527 17.4001 122 17.4271 120.738 16.8731C118.752 15.981 117.694 13.4736 118.422 11.4246ZM127.576 8.52014C128.105 8.52259 128.635 8.52259 129.167 8.52259C129.167 9.72112 129.164 10.9173 129.169 12.1158C130.032 10.9271 130.885 9.73093 131.733 8.5275C132.397 8.52259 133.064 8.52259 133.73 8.52259C132.664 9.9221 131.601 11.3217 130.52 12.7089C131.571 14.1623 132.662 15.5888 133.716 17.0398C133.047 17.0398 132.382 17.0373 131.716 17.0275C130.882 15.8168 130.02 14.6305 129.172 13.432C129.162 14.6329 129.167 15.8364 129.167 17.0398H127.574C127.574 14.1991 127.571 11.3609 127.576 8.52014ZM134.62 8.5226C135.169 8.5226 135.721 8.5226 136.275 8.52015C136.277 10.4662 136.27 12.4124 136.277 14.3584C137.517 12.4124 138.74 10.4564 139.993 8.5177C140.529 8.52015 141.066 8.5226 141.605 8.52505C141.605 11.3633 141.605 14.2016 141.608 17.0398H139.951C139.949 15.1109 139.956 13.1795 139.946 11.2506C138.718 13.1771 137.5 15.1133 136.272 17.0398C135.718 17.0398 135.169 17.0398 134.618 17.0374C134.62 14.1991 134.62 11.3609 134.62 8.5226ZM143.076 8.5226C143.625 8.5226 144.174 8.52015 144.726 8.5177C144.735 10.4711 144.73 12.4222 144.728 14.3731C145.961 12.4271 147.206 10.4883 148.424 8.53486C148.968 8.52505 149.512 8.5226 150.059 8.5177C150.061 11.3584 150.061 14.1991 150.061 17.0398H148.468C148.461 15.0962 148.48 13.1501 148.458 11.2065C147.196 13.1256 145.975 15.0741 144.762 17.0251C144.199 17.0349 143.637 17.0398 143.076 17.0447V8.5226ZM169.324 19.8217C169.765 19.8094 170.211 19.7996 170.657 19.7996C170.985 20.4957 171.971 20.5496 172.287 19.807C172.75 19.8045 173.218 19.8094 173.686 19.8217C173.375 20.9589 172.23 21.7016 171.064 21.4369C170.167 21.378 169.581 20.6133 169.324 19.8217ZM99.233 23.3805C100.625 21.4859 103.625 21.1575 105.439 22.6231C106.015 23.0643 106.38 23.704 106.738 24.3241C106.135 24.3241 105.525 24.3854 104.929 24.2825C104.36 23.9393 103.863 23.4222 103.174 23.3315C101.549 23.03 99.8751 24.4589 99.929 26.1158C99.8457 27.7187 101.36 29.1673 102.961 28.9957C103.728 29.0055 104.333 28.4908 104.873 28.0104C105.483 28.0055 106.096 28.008 106.708 28.0202C106.336 28.6477 105.961 29.3045 105.358 29.7408C103.613 31.0766 100.831 30.8486 99.4021 29.1477C98.0124 27.5741 97.8947 25.0227 99.233 23.3805ZM67.2182 21.8805H68.8726C68.8776 23.8094 68.8628 25.7384 68.88 27.6648C70.1128 25.7408 71.3334 23.8094 72.5589 21.8805C73.1055 21.8805 73.6545 21.8805 74.2035 21.883C74.1937 24.7237 74.2231 27.5668 74.1888 30.4099C73.6423 30.4001 73.0957 30.3977 72.5491 30.3928C72.5467 28.4589 72.5516 26.5251 72.5491 24.5913C71.2942 26.5129 70.0859 28.4638 68.8457 30.3952C68.3065 30.3977 67.7673 30.4001 67.228 30.405C67.2035 27.5643 67.2256 24.7237 67.2182 21.8805ZM75.6741 21.8829C76.2231 21.8805 76.7746 21.8805 77.3236 21.878C77.331 23.003 77.3285 24.1256 77.3285 25.2506C78.3261 25.2506 79.3261 25.2481 80.3236 25.2555C80.3334 24.1305 80.331 23.0055 80.331 21.8805H81.9854V30.3976H80.331C80.331 29.2138 80.331 28.03 80.3334 26.8462C79.331 26.8437 78.3285 26.8413 77.3261 26.8462C77.331 28.03 77.3285 29.2138 77.3285 30.3976H75.6741V21.8829ZM83.5565 28.807C84.6177 26.5031 85.6398 24.1795 86.7035 21.8756C87.1839 21.8805 87.6668 21.883 88.1521 21.8854C89.1594 24.1967 90.2354 26.4785 91.2452 28.7898C91.5074 28.7996 91.7722 28.8094 92.0393 28.8168C92.032 29.6918 92.0344 30.5643 92.0344 31.4369C91.505 31.4393 90.9731 31.4393 90.4437 31.4418C90.4413 31.0937 90.4413 30.7457 90.4388 30.3977C88.4168 30.3977 86.3947 30.3952 84.3726 30.4001C84.3726 30.6599 84.3751 31.1795 84.3775 31.4393H82.782V28.8045C82.9756 28.8045 83.3628 28.8045 83.5565 28.807ZM87.4021 24.1771C86.7403 25.7261 86.054 27.2629 85.38 28.8045H89.4511C88.755 27.2678 88.1079 25.7114 87.4021 24.1771ZM90.7403 21.8805C91.4045 21.8805 92.0687 21.8805 92.7354 21.8781C93.5001 23.3339 94.1618 24.8437 94.9388 26.2947C95.5712 24.8192 96.206 23.3437 96.8604 21.8756C97.4535 21.8781 98.0466 21.8805 98.6422 21.883C97.3751 24.7236 96.0736 27.5496 94.804 30.3928C94.2011 30.3952 93.5957 30.3977 92.9927 30.4001C93.3015 29.6452 93.7746 28.9369 93.9462 28.1403C92.9192 26.0349 91.8089 23.9687 90.7403 21.8805ZM106.924 21.8805C108.517 21.8805 110.11 21.8805 111.703 21.883V23.4712C111.172 23.4736 110.64 23.4737 110.11 23.4737V30.3977H108.456V23.4761C107.946 23.4737 107.434 23.4737 106.924 23.4737V21.8805ZM112.439 21.883C113.775 21.9491 115.179 21.6722 116.463 22.1526C118.174 22.8658 118.397 25.5349 116.946 26.6158C116.125 27.2114 115.061 27.1991 114.093 27.2359C114.093 28.2898 114.093 29.3437 114.091 30.3977H112.439V21.883ZM114.096 23.4614C114.093 24.182 114.091 24.9026 114.088 25.6256C114.74 25.5839 115.507 25.7285 116.037 25.2482C116.407 24.7555 116.333 23.8854 115.725 23.6084C115.213 23.3952 114.637 23.4932 114.096 23.4614ZM118.811 21.8805H120.466C120.466 23.8241 120.463 25.7678 120.466 27.7089C121.716 25.7727 122.931 23.8119 124.184 21.8756C124.721 21.8781 125.257 21.8805 125.797 21.883V30.3977H124.203C124.199 28.4393 124.211 26.4834 124.199 24.5276C122.951 26.4736 121.711 28.4222 120.485 30.383C119.926 30.3928 119.368 30.3977 118.811 30.4026V21.8805ZM130.127 21.8829C130.561 21.8805 130.998 21.878 131.434 21.8731C132.647 24.7016 133.799 27.557 134.993 30.3952C134.387 30.3976 133.784 30.3976 133.181 30.3976C132.892 29.6623 132.598 28.9295 132.304 28.1942C131.284 28.1893 130.265 28.1869 129.245 28.2016C128.968 28.9369 128.676 29.6672 128.385 30.3952C127.782 30.3976 127.179 30.3976 126.578 30.4001C127.748 27.5545 128.946 24.7212 130.127 21.8829ZM130.782 24.302C130.485 25.0692 130.186 25.8339 129.887 26.5986H131.679C131.385 25.8315 131.088 25.0643 130.782 24.302ZM135.039 30.4001C136.169 27.5619 137.277 24.7114 138.422 21.8756C138.899 21.8805 139.38 21.8805 139.86 21.883C140.971 24.7261 142.11 27.5545 143.225 30.3952C142.62 30.3977 142.017 30.3977 141.414 30.3977C140.647 28.3339 139.907 26.258 139.123 24.1991C138.368 26.2678 137.608 28.3315 136.848 30.4001C136.245 30.3977 135.64 30.3977 135.039 30.4001ZM143.995 21.8805H145.65C145.65 22.9614 145.65 24.0423 145.647 25.1232C146.689 25.1354 147.848 25.0031 148.743 25.655C150.167 26.7212 149.98 29.3315 148.314 30.0717C146.953 30.655 145.429 30.307 143.995 30.3952V21.8805ZM145.652 26.7138C145.65 27.4124 145.647 28.1134 145.65 28.8143C146.248 28.7874 146.873 28.8756 147.453 28.6893C148.216 28.4148 148.255 27.2138 147.534 26.8658C146.941 26.6158 146.275 26.7482 145.652 26.7138ZM150.613 21.8805H152.267C152.267 23.0055 152.265 24.1281 152.27 25.2531C153.27 25.2506 154.27 25.2506 155.27 25.2506C155.27 24.1256 155.267 23.0031 155.272 21.8805H156.924V30.3977H155.27C155.27 29.2138 155.267 28.03 155.272 26.8462C154.27 26.8437 153.267 26.8437 152.265 26.8462C152.267 28.03 152.267 29.2138 152.267 30.3977H150.613V21.8805ZM158.395 21.883C158.944 21.8805 159.495 21.8805 160.049 21.8805V25.1232C161.093 25.1403 162.272 24.9884 163.162 25.6648C164.615 26.7751 164.348 29.4589 162.593 30.1354C161.255 30.6207 159.797 30.3119 158.407 30.405C158.377 27.5643 158.402 24.7237 158.395 21.883ZM160.049 26.7138C160.047 27.4124 160.049 28.1134 160.049 28.8143C160.65 28.7898 161.275 28.8707 161.863 28.6967C162.701 28.3879 162.62 26.981 161.743 26.7825C161.184 26.6844 160.613 26.7212 160.049 26.7138ZM164.89 21.8805H166.483V30.3977H164.89V21.8805ZM168.015 21.8805H169.608C169.61 23.8388 169.603 25.7972 169.613 27.7555C170.846 25.7947 172.098 23.8462 173.333 21.8878C173.887 21.8829 174.444 21.8805 175 21.878V30.3952C174.449 30.3976 173.897 30.3976 173.348 30.4001C173.341 28.4516 173.348 26.503 173.343 24.5545C172.1 26.4981 170.863 28.4442 169.632 30.3976H168.015V21.8805ZM67.2182 35.2383H72.2428V36.8315H68.8727C68.8727 37.3805 68.8727 37.9295 68.8751 38.4785C69.9584 38.508 71.1888 38.3609 72.1031 39.0692C72.9903 39.7727 73.1717 41.0668 72.8482 42.0962C72.5369 43.0472 71.5859 43.6746 70.6104 43.7359C69.4805 43.7947 68.3482 43.7408 67.2158 43.7531C67.2182 40.9148 67.2182 38.0766 67.2182 35.2383ZM68.8727 40.0692V42.1648C69.782 42.1771 71.4168 42.4099 71.3849 41.0521C71.2084 39.8413 69.7526 40.0962 68.8727 40.0692ZM76.9241 35.2359C77.3531 35.2359 77.7795 35.2334 78.2084 35.231C79.4094 38.0643 80.5859 40.9099 81.7648 43.753C81.1594 43.7555 80.554 43.7555 79.9486 43.753C79.6717 43.0374 79.3898 42.3241 79.1055 41.6084C78.081 41.6109 77.054 41.6084 76.0295 41.6133C75.755 42.3315 75.4707 43.0423 75.1888 43.7555C74.5835 43.7555 73.9756 43.7555 73.3702 43.753C74.5491 40.9124 75.7256 38.0692 76.9241 35.2359ZM76.6594 40.0177C77.2673 40.0177 77.8727 40.0177 78.4805 40.0202C78.179 39.2408 77.8727 38.4638 77.5785 37.682C77.2648 38.4565 76.956 39.2359 76.6594 40.0177ZM82.5393 35.2359C83.0883 35.2383 83.6398 35.2383 84.1913 35.2383V38.6697C85.1937 38.6697 86.1937 38.6697 87.1937 38.6673V35.2383H88.8481V43.7555H87.1937C87.1937 42.5717 87.1913 41.3903 87.1986 40.2089C86.1962 40.1991 85.1937 40.1991 84.1913 40.2016C84.1913 41.3829 84.1888 42.5643 84.1986 43.7457C83.6447 43.7506 83.0908 43.7555 82.5368 43.7604C82.5368 40.9173 82.5368 38.0766 82.5393 35.2359ZM94.4976 35.2531C95.1667 35.2383 95.8334 35.2383 96.5025 35.2383C95.4364 36.6428 94.3653 38.0398 93.2917 39.4344C94.3457 40.883 95.4216 42.3168 96.4903 43.7555C95.7256 43.6281 94.5981 44.1281 94.1496 43.2702C93.4241 42.2383 92.706 41.204 91.9658 40.1869C91.9756 41.3756 91.9731 42.5668 91.9731 43.7555H90.3187V35.2383H91.9731C91.9731 36.4197 91.9731 37.6011 91.9707 38.7825C92.8334 37.6207 93.6741 36.4418 94.4976 35.2531Z" fill="#93130A"/>
</svg>
