<svg width="200" height="51" viewBox="0 0 200 51" fill="none" xmlns="http://www.w3.org/2000/svg">
<path d="M64.43 7.17969L52.21 19.3897H64.43V43.8197L76.64 31.6397V7.17969H64.43Z" fill="#EA5616"/>
<path d="M52.21 43.8197L64.43 31.6097H52.21V7.17969L40 19.3597V43.8197H52.21ZM88.86 37.7097H95.27V18.7797H105V37.7097H111.41V13.2897H88.86V37.7097ZM151.15 22.4297H145.67V18.7797H157.87V13.2797H139.25V37.7097H151.45C156.34 37.7097 160 35.2597 160 30.0697C160 24.8797 156.34 22.4297 151.14 22.4297H151.15ZM150.53 32.4997H145.66V27.6397H150.53C152.04 27.6397 153.53 28.2397 153.53 30.0697C153.53 31.8997 152 32.4997 150.53 32.4997ZM127.14 32.4997C122.86 32.4997 120.45 29.3597 120.45 25.4997C120.45 22.3897 122.2 18.4997 127.01 18.4997C128.088 18.509 129.151 18.7547 130.124 19.2195C131.096 19.6843 131.955 20.3568 132.64 21.1897L136.54 17.2897C135.338 15.8515 133.834 14.6949 132.135 13.9018C130.437 13.1086 128.585 12.6983 126.71 12.6997C125.021 12.6551 123.341 12.9564 121.773 13.5851C120.205 14.2137 118.782 15.1564 117.591 16.3553C116.401 17.5541 115.468 18.9838 114.851 20.5563C114.233 22.1289 113.944 23.8112 114 25.4997C113.979 28.1928 114.813 30.8231 116.383 33.0116C117.952 35.2002 120.176 36.8342 122.733 37.6782C125.291 38.5222 128.05 38.5326 130.614 37.708C133.178 36.8834 135.414 35.2663 137 33.0897L133.08 29.1697C132.458 30.2016 131.577 31.0533 130.524 31.6408C129.472 32.2283 128.285 32.5312 127.08 32.5197" fill="#2C2D84"/>
</svg>
