<svg width="200" height="51" viewBox="0 0 200 51" fill="none" xmlns="http://www.w3.org/2000/svg">
<path d="M108.956 6.99707L90.5957 9.39558V14.8288L108.956 13.1903V6.99707Z" fill="#E4003A"/>
<path fill-rule="evenodd" clip-rule="evenodd" d="M105.481 19.4483L90.5964 9.40137V14.8217L95.2375 17.9654L96.1506 18.4981C94.4832 18.5181 93.6847 18.8568 92.8826 19.3411C90.5908 20.7228 89.4012 23.1526 89.4012 26.7383C89.4012 32.7801 92.7361 35.6407 99.0889 35.6407C105.442 35.6407 108.794 32.7801 108.794 26.7383C108.794 23.2414 107.66 20.8504 105.481 19.4483ZM99.0889 31.2228C95.9395 31.2228 94.9483 30.0763 94.9483 26.7846C94.9483 23.493 95.9321 22.3464 99.0889 22.3464C102.246 22.3464 103.213 23.4706 103.213 26.7846C103.213 30.0983 102.263 31.2228 99.0889 31.2228ZM52.859 26.7846C52.859 30.0819 53.8428 31.2228 56.9996 31.2228C60.1565 31.2228 61.1238 30.0763 61.1238 26.7846C61.1238 23.493 60.1713 22.3464 56.9996 22.3464C53.8276 22.3464 52.859 23.4706 52.859 26.7846ZM47.3119 26.7366C47.3119 20.6948 50.6691 17.9302 56.9996 17.9302C63.3303 17.9302 66.7021 20.6948 66.7021 26.7366C66.7021 32.7781 63.3672 35.639 56.9996 35.639C50.632 35.639 47.3119 32.7781 47.3119 26.7366ZM31.7214 20.5229C32.3254 19.7571 34.7619 17.9079 37.7594 17.9079C42.7485 17.9079 45.4998 20.5968 45.4998 26.7051C45.4998 32.8129 42.7449 35.5279 37.7427 35.5279C34.7282 35.5279 32.3087 33.7119 31.6882 32.9297V41.0035H26.4023V18.3038H31.7214V20.5229ZM31.7252 26.6919C31.7252 29.9855 32.7164 31.1301 35.8658 31.1301V31.1229C39.0375 31.1229 39.9881 30.002 39.9881 26.6919C39.9881 23.3818 39.0227 22.2537 35.8658 22.2537C32.709 22.2537 31.7252 23.3983 31.7252 26.6919ZM145.166 18.311V24.4748H138.148V18.311H132.829V34.9916H138.148V28.7427H145.166V34.9916H150.487V18.311H145.166ZM118.381 35.5279C113.375 35.5279 110.624 32.8073 110.624 26.7051C110.624 20.6133 113.373 17.9079 118.363 17.9079C121.358 17.9079 123.795 19.7571 124.402 20.5117V18.2926H129.722V34.9932H124.434V32.9297C123.813 33.7119 121.394 35.5279 118.381 35.5279ZM120.258 22.2425C117.084 22.2425 116.134 23.367 116.134 26.6807C116.132 29.978 117.103 31.1193 120.258 31.1193C123.413 31.1193 124.397 29.9911 124.397 26.6807C124.397 23.3706 123.432 22.2425 120.258 22.2425ZM82.1369 28.8278C81.7218 30.5718 80.6103 31.2225 78.2016 31.2225C75.0521 31.2225 74.0626 30.076 74.0626 26.7843C74.0626 23.4926 75.0521 22.3461 78.2016 22.3461C80.6103 22.3461 81.7218 22.9951 82.1385 24.7503L87.6856 24.3304C86.8574 19.9662 83.6096 17.9375 78.2016 17.9375C71.871 17.9375 68.5158 20.7021 68.5158 26.7439C68.5158 32.7853 71.8504 35.6462 78.2016 35.6462C83.6058 35.6462 86.8204 33.5751 87.6689 29.2533L82.1369 28.8278ZM164.582 26.2316L173 34.9896H166.162L158.829 27.3097V27.7128V29.1569V34.9896H153.605V18.311H158.829V25.5565L165.968 18.311H172.548L164.582 26.2316Z" fill="#00274F"/>
</svg>
