<svg width="201" height="51" viewBox="0 0 201 51" fill="none" xmlns="http://www.w3.org/2000/svg">
<path d="M91 20.0004L94.8 17.2004H82.2V33.8004H94.8V31.0004H85.8V26.8004H93.4V24.0004H85.8V20.0004H91ZM75.3 20.0004L79.1 17.2004H64.7V33.8004H72.2C76.4 33.8004 78.8 31.9004 78.8 28.6004C78.8 25.4004 76.6 23.7004 72.6 23.7004H68.2V20.0004H75.3ZM72.1 26.4004C74.4 26.4004 75.4 27.2004 75.4 28.7004C75.4 30.2004 74.3 31.0004 72.1 31.0004H68.3V26.4004H72.1ZM104.9 17.2004H98.1V33.8004H101.7V29.1004H105C109.4 29.1004 112.1 26.8004 112.1 23.1004C112.1 19.4004 109.3 17.2004 104.9 17.2004ZM104.9 26.3004H101.7V19.9004H104.9C107.2 19.9004 108.5 21.0004 108.5 23.1004C108.4 25.2004 107.2 26.3004 104.9 26.3004ZM58.6 30.2004C57.6 30.7004 56.6 31.0004 55.5 31.0004C52.3 31.0004 49.9 28.7004 49.9 25.5004C49.9 22.3004 52.2 20.0004 55.5 20.0004C56.7 20.0004 57.8 20.4004 58.8 21.0004L61.4 19.1004L61.2 18.9004C59.7 17.6004 57.7 16.9004 55.4 16.9004C52.9 16.9004 50.7 17.7004 49 19.3004C47.4 20.9004 46.4 23.1004 46.5 25.4004C46.5 27.7004 47.4 29.9004 49 31.6004C50.7 33.2004 53 34.1004 55.3 34.0004C57.9 34.0004 60.1 33.1004 61.7 31.5004L59.4 29.8004L58.6 30.2004ZM166.5 24.0004H158.8V17.2004H155.2V33.8004H158.8V27.0004H166.5V33.8004H170.1V17.2004H166.5V24.0004ZM142.2 17.2004L135 33.8004H138.6L140 30.5004H147.6L149 33.8004H152.8L145.8 17.2004H142.2ZM141.2 27.7004L144 21.0004L146.6 27.7004H141.2ZM183.1 25.2004L189.6 17.2004H185.5L180.1 24.3004H178.1V17.2004H174.5V33.8004H178.1V27.1004H180.4L185.9 33.8004H190.5L183.1 25.2004ZM127.5 23.7004H123.1V20.0004H132.5V17.2004H119.5V33.8004H127C131.2 33.8004 133.6 31.9004 133.6 28.6004C133.7 25.4004 131.5 23.7004 127.5 23.7004ZM126.9 31.1004H123.1V26.5004H126.9C129.2 26.5004 130.2 27.3004 130.2 28.8004C130.3 30.3004 129.1 31.1004 126.9 31.1004Z" fill="#21A038"/>
<path d="M34.9808 16.8809C35.63 17.7315 36.1796 18.6556 36.6184 19.6347L24.1695 28.935L18.9668 25.6297V21.6533L24.1695 24.9586L34.9808 16.8809Z" fill="#21A038"/>
<path d="M13.6573 25.3496C13.6573 25.1712 13.6616 24.9939 13.6702 24.8177L10.5172 24.6611C10.5064 24.8895 10.5 25.1201 10.5 25.3528C10.4987 27.1712 10.8516 28.9719 11.5385 30.6516C12.2254 32.3314 13.2328 33.8572 14.503 35.1414L16.7395 32.8759C15.7618 31.8891 14.9862 30.7161 14.4572 29.4245C13.9283 28.1329 13.6564 26.748 13.6573 25.3496Z" fill="url(#paint0_linear_225_3)"/>
<path d="M24.1669 14.6996C24.3429 14.6996 24.5178 14.7061 24.6917 14.7148L24.8494 11.5183C24.6234 11.5074 24.3958 11.502 24.1669 11.502C22.3719 11.4997 20.5942 11.8569 18.9357 12.5529C17.2773 13.2489 15.7709 14.27 14.5029 15.5577L16.7394 17.8243C17.7132 16.8331 18.8707 16.0468 20.1454 15.5106C21.4201 14.9743 22.7867 14.6987 24.1669 14.6996Z" fill="url(#paint1_linear_225_3)"/>
<path d="M24.167 36.0006C23.991 36.0006 23.816 36.0006 23.6412 35.9864L23.4834 39.1819C23.7102 39.1935 23.9381 39.1993 24.167 39.1993C25.9613 39.2012 27.7382 38.8438 29.3957 38.1476C31.0532 37.4514 32.5587 36.4301 33.8257 35.1425L31.5934 32.877C30.6195 33.8676 29.4621 34.6535 28.1877 35.1895C26.9132 35.7256 25.5468 36.0012 24.167 36.0006Z" fill="url(#paint2_linear_225_3)"/>
<path d="M30.0914 16.5575L32.7486 14.5725C30.3199 12.5794 27.2882 11.4945 24.1631 11.5V14.6987C26.2793 14.6961 28.3464 15.3442 30.0914 16.5575Z" fill="url(#paint3_linear_225_3)"/>
<path d="M37.8332 25.3501C37.8349 24.518 37.763 23.6873 37.6185 22.8682L34.6769 25.0652C34.6769 25.1598 34.6769 25.2544 34.6769 25.3501C34.6777 26.8383 34.3699 28.31 33.7735 29.6699C33.1771 31.0298 32.3053 32.2475 31.2148 33.2441L33.3365 35.6206C34.7543 34.3234 35.8872 32.7389 36.6618 30.9697C37.4365 29.2003 37.8355 27.2858 37.8332 25.3501Z" fill="#21A038"/>
<path d="M24.1672 36.0009C22.6987 36.0014 21.2465 35.6893 19.9044 35.0849C18.5625 34.4805 17.3607 33.5972 16.377 32.4922L14.0332 34.6413C15.3129 36.0784 16.8764 37.2267 18.6222 38.012C20.368 38.7972 22.2572 39.2018 24.1672 39.1995V36.0009Z" fill="url(#paint4_linear_225_3)"/>
<path d="M17.1194 17.4556L14.9988 15.0791C13.5806 16.376 12.4473 17.9604 11.6723 19.7297C10.8973 21.499 10.4979 23.4137 10.5 25.3495H13.6573C13.6566 23.8614 13.9645 22.3897 14.5609 21.0298C15.1573 19.6699 16.029 18.4522 17.1194 17.4556Z" fill="url(#paint5_linear_225_3)"/>
<defs>
<linearGradient id="paint0_linear_225_3" x1="15.1415" y1="34.7423" x2="11.6091" y2="24.6664" gradientUnits="userSpaceOnUse">
<stop offset="0.14" stop-color="#F1E813"/>
<stop offset="0.3" stop-color="#E6E418"/>
<stop offset="0.58" stop-color="#C9DA26"/>
<stop offset="0.89" stop-color="#A2CC39"/>
</linearGradient>
<linearGradient id="paint1_linear_225_3" x1="15.4044" y1="16.1233" x2="24.319" y2="12.7711" gradientUnits="userSpaceOnUse">
<stop offset="0.06" stop-color="#0FA7DF"/>
<stop offset="0.54" stop-color="#0098F8"/>
<stop offset="0.92" stop-color="#0290EA"/>
</linearGradient>
<linearGradient id="paint2_linear_225_3" x1="23.2752" y1="37.2687" x2="33.3352" y2="35.0263" gradientUnits="userSpaceOnUse">
<stop offset="0.12" stop-color="#A2CC39"/>
<stop offset="0.28" stop-color="#86C239"/>
<stop offset="0.87" stop-color="#219F38"/>
</linearGradient>
<linearGradient id="paint3_linear_225_3" x1="23.5064" y1="12.5713" x2="32.1158" y2="15.1929" gradientUnits="userSpaceOnUse">
<stop offset="0.06" stop-color="#0290EA"/>
<stop offset="0.79" stop-color="#0C89CA"/>
</linearGradient>
<linearGradient id="paint4_linear_225_3" x1="14.8252" y1="34.2519" x2="24.2051" y2="37.711" gradientUnits="userSpaceOnUse">
<stop offset="0.13" stop-color="#F1E813"/>
<stop offset="0.3" stop-color="#EAE616"/>
<stop offset="0.53" stop-color="#D8DF1F"/>
<stop offset="0.8" stop-color="#BAD52D"/>
<stop offset="0.98" stop-color="#A2CC39"/>
</linearGradient>
<linearGradient id="paint5_linear_225_3" x1="11.6762" y1="25.7367" x2="15.5174" y2="15.877" gradientUnits="userSpaceOnUse">
<stop offset="0.07" stop-color="#A2CC39"/>
<stop offset="0.26" stop-color="#81C45E"/>
<stop offset="0.92" stop-color="#0FA7DF"/>
</linearGradient>
</defs>
</svg>
