<svg width="201" height="51" viewBox="0 0 201 51" fill="none" xmlns="http://www.w3.org/2000/svg">
<path d="M88.2452 21.0254C86.1625 21.0254 84.6046 21.7962 83.8339 23.071H83.6673V21.4171H79.8599V38.9359H83.6673V33.3824H83.8339C84.6003 34.6572 86.1625 35.428 88.2452 35.428C92.1527 35.428 95.2518 32.2366 95.2518 28.2246C95.2518 24.2168 92.1527 21.0254 88.2452 21.0254ZM87.4747 31.9617C85.3502 31.9617 83.6673 30.3077 83.6673 28.2246C83.6673 26.1206 85.3502 24.4875 87.4747 24.4875C89.6617 24.4875 91.3237 26.1206 91.3237 28.2246C91.3237 30.3285 89.6407 31.9617 87.4747 31.9617Z" fill="#3B175C"/>
<path d="M173.404 22.0531C171.225 22.0531 169.521 22.8781 168.484 24.3113H168.313C168.596 21.7199 170.063 20.4617 173.22 20.0118L178.748 19.2118V15.708L172.854 16.5455C167.41 17.3037 164.798 20.1867 164.798 25.382C164.798 29.1398 165.039 30.3273 165.709 31.7479C166.764 34.0269 169.376 35.4267 172.534 35.4267C176.786 35.4267 180.068 32.4104 180.068 28.4608C180.065 24.6612 177.352 22.0531 173.404 22.0531ZM172.491 31.9438C170.326 31.9438 168.726 30.4648 168.726 28.4608C168.726 26.436 170.304 24.957 172.491 24.957C174.636 24.957 176.219 26.436 176.219 28.4608C176.219 30.4648 174.616 31.9438 172.491 31.9438Z" fill="#3B175C"/>
<path d="M75.868 17.3029L71.5817 25.9437L65.7414 17.3029H61.1885L69.6655 29.8099L69.4322 30.2849C69.0656 31.0431 68.5824 31.4513 67.466 31.4513H64.4668V35.051H67.8909C70.5027 35.051 71.5566 34.3885 72.6481 32.2097L80.142 17.2988H75.868V17.3029Z" fill="#3B175C"/>
<path d="M117.246 21.4316L116.596 29.8974C116.496 31.2223 116.05 31.7055 114.996 31.7055H114.063V35.151H116.334C118.887 35.151 120.02 33.9845 120.204 31.5514L120.703 24.9729H125.386V35.0344H129.235V21.4316H117.246Z" fill="#3B175C"/>
<path d="M139.158 24.5269C140.716 24.5269 141.953 25.4018 142.541 26.5725L145.944 25.2893C144.994 22.7021 142.299 21.0273 139.079 21.0273C134.763 21.0273 131.506 24.1394 131.506 28.2306C131.506 32.3177 134.768 35.4341 139.079 35.4341C142.299 35.4341 144.994 33.7592 145.944 31.1719L142.541 29.8888C141.953 31.0554 140.716 31.9344 139.158 31.9344C136.992 31.9344 135.43 30.397 135.43 28.2349C135.43 26.0642 136.992 24.5269 139.158 24.5269Z" fill="#3B175C"/>
<path d="M157.966 21.4121L152.055 30.0611V21.4121H148.248V35.0356H152.459L158.333 26.4491V35.0356H162.14V21.4121H157.966Z" fill="#3B175C"/>
<path d="M108.329 23.0661H108.162C107.396 21.7913 105.833 21.0205 103.751 21.0205C99.8433 21.0205 96.7441 24.2119 96.7441 28.2239C96.7441 32.2317 99.8433 35.4272 103.751 35.4272C105.833 35.4272 107.391 34.6565 108.162 33.3816H108.329V35.0356H112.136V21.4122H108.329V23.0661ZM104.526 31.961C102.359 31.961 100.676 30.3279 100.676 28.2239C100.676 26.12 102.339 24.4868 104.526 24.4868C106.65 24.4868 108.333 26.12 108.333 28.2239C108.329 30.3069 106.65 31.961 104.526 31.961Z" fill="#3B175C"/>
<path fill-rule="evenodd" clip-rule="evenodd" d="M36.6721 10.5154C36.866 10.5248 37.0675 10.5378 37.2779 10.5544V13.4327C37.2779 26.1148 37.7614 31.5971 39.6361 40.0511C37.2407 40.6504 34.6999 40.6504 32.3086 40.0464C34.1958 31.5309 34.6828 26.0486 34.6828 13.4327V10.5544C34.9351 10.5343 35.1733 10.5201 35.4014 10.5118C35.603 10.5035 35.7956 10.5 35.983 10.5C36.204 10.5 36.4322 10.5047 36.6721 10.5154ZM50.4565 26.5734C50.4565 21.6408 47.7698 17.3038 43.7331 14.8334L43.7875 18.1821C46.187 20.2448 47.7071 23.2448 47.7071 26.5734C47.7071 27.1278 47.664 27.6727 47.5812 28.2058C47.437 29.1349 47.174 30.0274 46.8117 30.869C45.0747 29.2189 43.8371 27.2779 43.067 24.986C42.1379 22.2117 41.921 19.1738 41.8879 15.4622L41.892 13.8665C41.642 13.7589 41.3885 13.6584 41.132 13.5639C40.5339 13.3452 39.9204 13.1643 39.2969 13.0248L39.301 15.4575C39.3885 28.2732 41.6089 33.5558 44.9122 37.5263C48.2905 34.9766 50.4565 31.0191 50.4565 26.5734ZM32.6597 15.4599L32.6638 13.0272C32.1863 13.1348 31.7146 13.266 31.2519 13.4197C30.8506 13.552 30.4558 13.7022 30.0686 13.8688L30.0728 15.4646C30.0355 19.1727 29.8228 22.2141 28.8937 24.9883C28.1277 27.2803 26.886 29.2177 25.149 30.8714C24.925 30.3501 24.7388 29.8099 24.5952 29.2543C24.3736 28.3962 24.2536 27.499 24.2536 26.5758C24.2536 23.2424 25.7695 20.2471 28.1732 18.1845L28.2276 14.8357C24.1868 17.3015 21.5 21.6384 21.5 26.5758C21.5 31.0215 23.6702 34.979 27.0444 37.5286C30.3559 33.5629 32.5722 28.2756 32.6597 15.4599Z" fill="#3B175C"/>
</svg>
